<mxfile host="app.diagrams.net" modified="2023-09-06T12:23:38.735Z" agent="Mozilla/5.0 (Windows NT 10.0; Win64; x64) AppleWebKit/537.36 (KHTML, like Gecko) Chrome/116.0.0.0 Safari/537.36" etag="siruEYpvvVNHLFSrMC7W" version="21.7.2" type="device">
  <diagram name="Page-1" id="-t5gieriuJUf64oqR0Y0">
    <mxGraphModel dx="794" dy="432" grid="1" gridSize="10" guides="1" tooltips="1" connect="1" arrows="1" fold="1" page="1" pageScale="1" pageWidth="827" pageHeight="4069" math="0" shadow="0">
      <root>
        <mxCell id="0" />
        <mxCell id="1" parent="0" />
        <mxCell id="GJyX6gk9V1ZS1GH2z5rf-1" value="Responsable" style="swimlane;fontStyle=1;childLayout=stackLayout;horizontal=1;startSize=26;horizontalStack=0;resizeParent=1;resizeParentMax=0;resizeLast=0;collapsible=1;marginBottom=0;align=center;fontSize=14;labelBackgroundColor=none;fillColor=#F2CC8F;strokeColor=#E07A5F;fontColor=#393C56;" vertex="1" parent="1">
          <mxGeometry x="30" y="95" width="160" height="150" as="geometry" />
        </mxCell>
        <mxCell id="GJyX6gk9V1ZS1GH2z5rf-2" value="nom" style="text;strokeColor=none;fillColor=none;spacingLeft=4;spacingRight=4;overflow=hidden;rotatable=0;points=[[0,0.5],[1,0.5]];portConstraint=eastwest;fontSize=12;whiteSpace=wrap;html=1;labelBackgroundColor=none;fontColor=#393C56;fontStyle=1" vertex="1" parent="GJyX6gk9V1ZS1GH2z5rf-1">
          <mxGeometry y="26" width="160" height="30" as="geometry" />
        </mxCell>
        <mxCell id="GJyX6gk9V1ZS1GH2z5rf-3" value="prénom" style="text;strokeColor=none;fillColor=none;spacingLeft=4;spacingRight=4;overflow=hidden;rotatable=0;points=[[0,0.5],[1,0.5]];portConstraint=eastwest;fontSize=12;whiteSpace=wrap;html=1;labelBackgroundColor=none;fontColor=#393C56;fontStyle=1" vertex="1" parent="GJyX6gk9V1ZS1GH2z5rf-1">
          <mxGeometry y="56" width="160" height="30" as="geometry" />
        </mxCell>
        <mxCell id="GJyX6gk9V1ZS1GH2z5rf-4" value="email&lt;br&gt;&lt;br&gt;numéro" style="text;strokeColor=none;fillColor=none;spacingLeft=4;spacingRight=4;overflow=hidden;rotatable=0;points=[[0,0.5],[1,0.5]];portConstraint=eastwest;fontSize=12;whiteSpace=wrap;html=1;labelBackgroundColor=none;fontColor=#393C56;fontStyle=1" vertex="1" parent="GJyX6gk9V1ZS1GH2z5rf-1">
          <mxGeometry y="86" width="160" height="64" as="geometry" />
        </mxCell>
        <mxCell id="GJyX6gk9V1ZS1GH2z5rf-5" value="&lt;span style=&quot;border-bottom: 1px dotted&quot;&gt;Gérer&lt;/span&gt;" style="ellipse;whiteSpace=wrap;html=1;align=center;labelBackgroundColor=none;fillColor=#F2CC8F;strokeColor=#E07A5F;fontColor=#393C56;fontStyle=1" vertex="1" parent="1">
          <mxGeometry x="290" y="150" width="100" height="40" as="geometry" />
        </mxCell>
        <mxCell id="GJyX6gk9V1ZS1GH2z5rf-6" value="" style="endArrow=none;html=1;rounded=0;entryX=0;entryY=0;entryDx=0;entryDy=0;exitX=1.016;exitY=0.06;exitDx=0;exitDy=0;exitPerimeter=0;labelBackgroundColor=none;strokeColor=#E07A5F;fontColor=default;fontStyle=1" edge="1" parent="1" source="GJyX6gk9V1ZS1GH2z5rf-1" target="GJyX6gk9V1ZS1GH2z5rf-5">
          <mxGeometry relative="1" as="geometry">
            <mxPoint x="210" y="60" as="sourcePoint" />
            <mxPoint x="300" y="170" as="targetPoint" />
          </mxGeometry>
        </mxCell>
        <mxCell id="GJyX6gk9V1ZS1GH2z5rf-7" value="Etablissement" style="swimlane;fontStyle=1;childLayout=stackLayout;horizontal=1;startSize=26;horizontalStack=0;resizeParent=1;resizeParentMax=0;resizeLast=0;collapsible=1;marginBottom=0;align=center;fontSize=14;labelBackgroundColor=none;fillColor=#F2CC8F;strokeColor=#E07A5F;fontColor=#393C56;" vertex="1" parent="1">
          <mxGeometry x="430" y="70" width="160" height="160" as="geometry" />
        </mxCell>
        <mxCell id="GJyX6gk9V1ZS1GH2z5rf-8" value="nom" style="text;strokeColor=none;fillColor=none;spacingLeft=4;spacingRight=4;overflow=hidden;rotatable=0;points=[[0,0.5],[1,0.5]];portConstraint=eastwest;fontSize=12;whiteSpace=wrap;html=1;labelBackgroundColor=none;fontColor=#393C56;fontStyle=1" vertex="1" parent="GJyX6gk9V1ZS1GH2z5rf-7">
          <mxGeometry y="26" width="160" height="30" as="geometry" />
        </mxCell>
        <mxCell id="GJyX6gk9V1ZS1GH2z5rf-9" value="adresse mail" style="text;strokeColor=none;fillColor=none;spacingLeft=4;spacingRight=4;overflow=hidden;rotatable=0;points=[[0,0.5],[1,0.5]];portConstraint=eastwest;fontSize=12;whiteSpace=wrap;html=1;labelBackgroundColor=none;fontColor=#393C56;fontStyle=1" vertex="1" parent="GJyX6gk9V1ZS1GH2z5rf-7">
          <mxGeometry y="56" width="160" height="30" as="geometry" />
        </mxCell>
        <mxCell id="GJyX6gk9V1ZS1GH2z5rf-10" value="téléphone&lt;br&gt;&lt;br&gt;adresse postale" style="text;strokeColor=none;fillColor=none;spacingLeft=4;spacingRight=4;overflow=hidden;rotatable=0;points=[[0,0.5],[1,0.5]];portConstraint=eastwest;fontSize=12;whiteSpace=wrap;html=1;labelBackgroundColor=none;fontColor=#393C56;fontStyle=1" vertex="1" parent="GJyX6gk9V1ZS1GH2z5rf-7">
          <mxGeometry y="86" width="160" height="74" as="geometry" />
        </mxCell>
        <mxCell id="GJyX6gk9V1ZS1GH2z5rf-11" value="" style="endArrow=none;html=1;rounded=0;entryX=-0.003;entryY=0.172;entryDx=0;entryDy=0;entryPerimeter=0;exitX=1;exitY=0;exitDx=0;exitDy=0;labelBackgroundColor=none;strokeColor=#E07A5F;fontColor=default;fontStyle=1" edge="1" parent="1" source="GJyX6gk9V1ZS1GH2z5rf-5" target="GJyX6gk9V1ZS1GH2z5rf-7">
          <mxGeometry relative="1" as="geometry">
            <mxPoint x="270" y="160" as="sourcePoint" />
            <mxPoint x="430" y="160" as="targetPoint" />
          </mxGeometry>
        </mxCell>
        <mxCell id="GJyX6gk9V1ZS1GH2z5rf-12" value="Programme" style="swimlane;fontStyle=1;childLayout=stackLayout;horizontal=1;startSize=26;horizontalStack=0;resizeParent=1;resizeParentMax=0;resizeLast=0;collapsible=1;marginBottom=0;align=center;fontSize=14;labelBackgroundColor=none;fillColor=#F2CC8F;strokeColor=#E07A5F;fontColor=#393C56;" vertex="1" parent="1">
          <mxGeometry x="550" y="310" width="160" height="116" as="geometry" />
        </mxCell>
        <mxCell id="GJyX6gk9V1ZS1GH2z5rf-13" value="date début" style="text;strokeColor=none;fillColor=none;spacingLeft=4;spacingRight=4;overflow=hidden;rotatable=0;points=[[0,0.5],[1,0.5]];portConstraint=eastwest;fontSize=12;whiteSpace=wrap;html=1;labelBackgroundColor=none;fontColor=#393C56;fontStyle=1" vertex="1" parent="GJyX6gk9V1ZS1GH2z5rf-12">
          <mxGeometry y="26" width="160" height="30" as="geometry" />
        </mxCell>
        <mxCell id="GJyX6gk9V1ZS1GH2z5rf-14" value="date fin" style="text;strokeColor=none;fillColor=none;spacingLeft=4;spacingRight=4;overflow=hidden;rotatable=0;points=[[0,0.5],[1,0.5]];portConstraint=eastwest;fontSize=12;whiteSpace=wrap;html=1;labelBackgroundColor=none;fontColor=#393C56;fontStyle=1" vertex="1" parent="GJyX6gk9V1ZS1GH2z5rf-12">
          <mxGeometry y="56" width="160" height="30" as="geometry" />
        </mxCell>
        <mxCell id="GJyX6gk9V1ZS1GH2z5rf-15" value="nom" style="text;strokeColor=none;fillColor=none;spacingLeft=4;spacingRight=4;overflow=hidden;rotatable=0;points=[[0,0.5],[1,0.5]];portConstraint=eastwest;fontSize=12;whiteSpace=wrap;html=1;labelBackgroundColor=none;fontColor=#393C56;fontStyle=1" vertex="1" parent="GJyX6gk9V1ZS1GH2z5rf-12">
          <mxGeometry y="86" width="160" height="30" as="geometry" />
        </mxCell>
        <mxCell id="GJyX6gk9V1ZS1GH2z5rf-16" value="" style="endArrow=none;html=1;rounded=0;entryX=0.429;entryY=1;entryDx=0;entryDy=0;entryPerimeter=0;labelBackgroundColor=none;strokeColor=#E07A5F;fontColor=default;fontStyle=1" edge="1" parent="1" target="GJyX6gk9V1ZS1GH2z5rf-10">
          <mxGeometry relative="1" as="geometry">
            <mxPoint x="610" y="230" as="sourcePoint" />
            <mxPoint x="600" y="240" as="targetPoint" />
          </mxGeometry>
        </mxCell>
        <mxCell id="GJyX6gk9V1ZS1GH2z5rf-17" value="Choisir" style="ellipse;whiteSpace=wrap;html=1;align=center;labelBackgroundColor=none;fillColor=#F2CC8F;strokeColor=#E07A5F;fontColor=#393C56;fontStyle=1" vertex="1" parent="1">
          <mxGeometry x="610" y="210" width="100" height="40" as="geometry" />
        </mxCell>
        <mxCell id="GJyX6gk9V1ZS1GH2z5rf-18" value="" style="endArrow=none;html=1;rounded=0;entryX=0.378;entryY=1.021;entryDx=0;entryDy=0;entryPerimeter=0;exitX=0.75;exitY=0;exitDx=0;exitDy=0;labelBackgroundColor=none;strokeColor=#E07A5F;fontColor=default;fontStyle=1" edge="1" parent="1" source="GJyX6gk9V1ZS1GH2z5rf-12" target="GJyX6gk9V1ZS1GH2z5rf-17">
          <mxGeometry relative="1" as="geometry">
            <mxPoint x="660" y="300" as="sourcePoint" />
            <mxPoint x="580" y="270" as="targetPoint" />
          </mxGeometry>
        </mxCell>
        <mxCell id="GJyX6gk9V1ZS1GH2z5rf-19" value="Contenir" style="ellipse;whiteSpace=wrap;html=1;align=center;labelBackgroundColor=none;fillColor=#F2CC8F;strokeColor=#E07A5F;fontColor=#393C56;fontStyle=1" vertex="1" parent="1">
          <mxGeometry x="550" y="508" width="100" height="40" as="geometry" />
        </mxCell>
        <mxCell id="GJyX6gk9V1ZS1GH2z5rf-20" value="" style="endArrow=none;html=1;rounded=0;exitX=0.5;exitY=0;exitDx=0;exitDy=0;labelBackgroundColor=none;strokeColor=#E07A5F;fontColor=default;fontStyle=1" edge="1" parent="1" source="GJyX6gk9V1ZS1GH2z5rf-19">
          <mxGeometry relative="1" as="geometry">
            <mxPoint x="390" y="330" as="sourcePoint" />
            <mxPoint x="640" y="420" as="targetPoint" />
          </mxGeometry>
        </mxCell>
        <mxCell id="GJyX6gk9V1ZS1GH2z5rf-21" value="" style="endArrow=none;html=1;rounded=0;exitX=1;exitY=0.25;exitDx=0;exitDy=0;entryX=0.5;entryY=1;entryDx=0;entryDy=0;labelBackgroundColor=none;strokeColor=#E07A5F;fontColor=default;fontStyle=1" edge="1" parent="1" source="GJyX6gk9V1ZS1GH2z5rf-22" target="GJyX6gk9V1ZS1GH2z5rf-19">
          <mxGeometry relative="1" as="geometry">
            <mxPoint x="633.6800000000001" y="563.6080000000001" as="sourcePoint" />
            <mxPoint x="610" y="394" as="targetPoint" />
          </mxGeometry>
        </mxCell>
        <mxCell id="GJyX6gk9V1ZS1GH2z5rf-22" value="Activiter" style="swimlane;fontStyle=1;childLayout=stackLayout;horizontal=1;startSize=26;horizontalStack=0;resizeParent=1;resizeParentMax=0;resizeLast=0;collapsible=1;marginBottom=0;align=center;fontSize=14;labelBackgroundColor=none;fillColor=#F2CC8F;strokeColor=#E07A5F;fontColor=#393C56;" vertex="1" parent="1">
          <mxGeometry x="260" y="500" width="160" height="56" as="geometry" />
        </mxCell>
        <mxCell id="GJyX6gk9V1ZS1GH2z5rf-23" value="nom d&#39;activiter" style="text;strokeColor=none;fillColor=none;spacingLeft=4;spacingRight=4;overflow=hidden;rotatable=0;points=[[0,0.5],[1,0.5]];portConstraint=eastwest;fontSize=12;whiteSpace=wrap;html=1;labelBackgroundColor=none;fontColor=#393C56;fontStyle=1" vertex="1" parent="GJyX6gk9V1ZS1GH2z5rf-22">
          <mxGeometry y="26" width="160" height="30" as="geometry" />
        </mxCell>
        <mxCell id="GJyX6gk9V1ZS1GH2z5rf-24" value="Créer" style="ellipse;whiteSpace=wrap;html=1;align=center;labelBackgroundColor=none;fillColor=#F2CC8F;strokeColor=#E07A5F;fontColor=#393C56;fontStyle=1" vertex="1" parent="1">
          <mxGeometry x="340" y="340" width="100" height="40" as="geometry" />
        </mxCell>
        <mxCell id="GJyX6gk9V1ZS1GH2z5rf-25" value="" style="endArrow=none;html=1;rounded=0;entryX=-0.008;entryY=0.129;entryDx=0;entryDy=0;entryPerimeter=0;labelBackgroundColor=none;strokeColor=#E07A5F;fontColor=default;fontStyle=1" edge="1" parent="1" target="GJyX6gk9V1ZS1GH2z5rf-12">
          <mxGeometry relative="1" as="geometry">
            <mxPoint x="430" y="350" as="sourcePoint" />
            <mxPoint x="430" y="280" as="targetPoint" />
          </mxGeometry>
        </mxCell>
        <mxCell id="GJyX6gk9V1ZS1GH2z5rf-26" value="Association" style="swimlane;fontStyle=1;childLayout=stackLayout;horizontal=1;startSize=26;horizontalStack=0;resizeParent=1;resizeParentMax=0;resizeLast=0;collapsible=1;marginBottom=0;align=center;fontSize=14;labelBackgroundColor=none;fillColor=#F2CC8F;strokeColor=#E07A5F;fontColor=#393C56;" vertex="1" parent="1">
          <mxGeometry x="40" y="316" width="160" height="116" as="geometry" />
        </mxCell>
        <mxCell id="GJyX6gk9V1ZS1GH2z5rf-27" value="nom" style="text;strokeColor=none;fillColor=none;spacingLeft=4;spacingRight=4;overflow=hidden;rotatable=0;points=[[0,0.5],[1,0.5]];portConstraint=eastwest;fontSize=12;whiteSpace=wrap;html=1;labelBackgroundColor=none;fontColor=#393C56;fontStyle=1" vertex="1" parent="GJyX6gk9V1ZS1GH2z5rf-26">
          <mxGeometry y="26" width="160" height="30" as="geometry" />
        </mxCell>
        <mxCell id="GJyX6gk9V1ZS1GH2z5rf-28" value="adresse mail" style="text;strokeColor=none;fillColor=none;spacingLeft=4;spacingRight=4;overflow=hidden;rotatable=0;points=[[0,0.5],[1,0.5]];portConstraint=eastwest;fontSize=12;whiteSpace=wrap;html=1;labelBackgroundColor=none;fontColor=#393C56;fontStyle=1" vertex="1" parent="GJyX6gk9V1ZS1GH2z5rf-26">
          <mxGeometry y="56" width="160" height="30" as="geometry" />
        </mxCell>
        <mxCell id="GJyX6gk9V1ZS1GH2z5rf-29" value="téléphone" style="text;strokeColor=none;fillColor=none;spacingLeft=4;spacingRight=4;overflow=hidden;rotatable=0;points=[[0,0.5],[1,0.5]];portConstraint=eastwest;fontSize=12;whiteSpace=wrap;html=1;labelBackgroundColor=none;fontColor=#393C56;fontStyle=1" vertex="1" parent="GJyX6gk9V1ZS1GH2z5rf-26">
          <mxGeometry y="86" width="160" height="30" as="geometry" />
        </mxCell>
        <mxCell id="GJyX6gk9V1ZS1GH2z5rf-30" value="" style="endArrow=none;html=1;rounded=0;exitX=0.997;exitY=0.135;exitDx=0;exitDy=0;exitPerimeter=0;entryX=0;entryY=0.5;entryDx=0;entryDy=0;labelBackgroundColor=none;strokeColor=#E07A5F;fontColor=default;fontStyle=1" edge="1" parent="1" source="GJyX6gk9V1ZS1GH2z5rf-26" target="GJyX6gk9V1ZS1GH2z5rf-24">
          <mxGeometry relative="1" as="geometry">
            <mxPoint x="270" y="280" as="sourcePoint" />
            <mxPoint x="430" y="280" as="targetPoint" />
          </mxGeometry>
        </mxCell>
        <mxCell id="GJyX6gk9V1ZS1GH2z5rf-31" value="Donneur" style="swimlane;fontStyle=1;childLayout=stackLayout;horizontal=1;startSize=26;horizontalStack=0;resizeParent=1;resizeParentMax=0;resizeLast=0;collapsible=1;marginBottom=0;align=center;fontSize=14;labelBackgroundColor=none;fillColor=#F2CC8F;strokeColor=#E07A5F;fontColor=#393C56;" vertex="1" parent="1">
          <mxGeometry x="30" y="651" width="160" height="116" as="geometry" />
        </mxCell>
        <mxCell id="GJyX6gk9V1ZS1GH2z5rf-32" value="nom" style="text;strokeColor=none;fillColor=none;spacingLeft=4;spacingRight=4;overflow=hidden;rotatable=0;points=[[0,0.5],[1,0.5]];portConstraint=eastwest;fontSize=12;whiteSpace=wrap;html=1;labelBackgroundColor=none;fontColor=#393C56;fontStyle=1" vertex="1" parent="GJyX6gk9V1ZS1GH2z5rf-31">
          <mxGeometry y="26" width="160" height="30" as="geometry" />
        </mxCell>
        <mxCell id="GJyX6gk9V1ZS1GH2z5rf-33" value="adresse mail" style="text;strokeColor=none;fillColor=none;spacingLeft=4;spacingRight=4;overflow=hidden;rotatable=0;points=[[0,0.5],[1,0.5]];portConstraint=eastwest;fontSize=12;whiteSpace=wrap;html=1;labelBackgroundColor=none;fontColor=#393C56;fontStyle=1" vertex="1" parent="GJyX6gk9V1ZS1GH2z5rf-31">
          <mxGeometry y="56" width="160" height="30" as="geometry" />
        </mxCell>
        <mxCell id="GJyX6gk9V1ZS1GH2z5rf-34" value="téléphone" style="text;strokeColor=none;fillColor=none;spacingLeft=4;spacingRight=4;overflow=hidden;rotatable=0;points=[[0,0.5],[1,0.5]];portConstraint=eastwest;fontSize=12;whiteSpace=wrap;html=1;labelBackgroundColor=none;fontColor=#393C56;fontStyle=1" vertex="1" parent="GJyX6gk9V1ZS1GH2z5rf-31">
          <mxGeometry y="86" width="160" height="30" as="geometry" />
        </mxCell>
        <mxCell id="GJyX6gk9V1ZS1GH2z5rf-35" value="" style="endArrow=none;html=1;rounded=0;exitX=0.992;exitY=0.165;exitDx=0;exitDy=0;exitPerimeter=0;labelBackgroundColor=none;strokeColor=#E07A5F;fontColor=default;fontStyle=1" edge="1" parent="1" source="GJyX6gk9V1ZS1GH2z5rf-31" target="GJyX6gk9V1ZS1GH2z5rf-36">
          <mxGeometry relative="1" as="geometry">
            <mxPoint x="270" y="530" as="sourcePoint" />
            <mxPoint x="280" y="698" as="targetPoint" />
          </mxGeometry>
        </mxCell>
        <mxCell id="GJyX6gk9V1ZS1GH2z5rf-36" value="Attribute" style="ellipse;whiteSpace=wrap;html=1;align=center;labelBackgroundColor=none;fillColor=#F2CC8F;strokeColor=#E07A5F;fontColor=#393C56;fontStyle=1" vertex="1" parent="1">
          <mxGeometry x="220" y="689" width="100" height="40" as="geometry" />
        </mxCell>
        <mxCell id="GJyX6gk9V1ZS1GH2z5rf-37" value="Don" style="swimlane;fontStyle=1;childLayout=stackLayout;horizontal=1;startSize=26;horizontalStack=0;resizeParent=1;resizeParentMax=0;resizeLast=0;collapsible=1;marginBottom=0;align=center;fontSize=14;labelBackgroundColor=none;fillColor=#F2CC8F;strokeColor=#E07A5F;fontColor=#393C56;" vertex="1" parent="1">
          <mxGeometry x="334" y="651" width="160" height="86" as="geometry" />
        </mxCell>
        <mxCell id="GJyX6gk9V1ZS1GH2z5rf-38" value="montant" style="text;strokeColor=none;fillColor=none;spacingLeft=4;spacingRight=4;overflow=hidden;rotatable=0;points=[[0,0.5],[1,0.5]];portConstraint=eastwest;fontSize=12;whiteSpace=wrap;html=1;labelBackgroundColor=none;fontColor=#393C56;fontStyle=1" vertex="1" parent="GJyX6gk9V1ZS1GH2z5rf-37">
          <mxGeometry y="26" width="160" height="30" as="geometry" />
        </mxCell>
        <mxCell id="GJyX6gk9V1ZS1GH2z5rf-39" value="date" style="text;strokeColor=none;fillColor=none;spacingLeft=4;spacingRight=4;overflow=hidden;rotatable=0;points=[[0,0.5],[1,0.5]];portConstraint=eastwest;fontSize=12;whiteSpace=wrap;html=1;labelBackgroundColor=none;fontColor=#393C56;fontStyle=1" vertex="1" parent="GJyX6gk9V1ZS1GH2z5rf-37">
          <mxGeometry y="56" width="160" height="30" as="geometry" />
        </mxCell>
        <mxCell id="GJyX6gk9V1ZS1GH2z5rf-40" value="" style="endArrow=none;html=1;rounded=0;exitX=0.978;exitY=0.246;exitDx=0;exitDy=0;exitPerimeter=0;entryX=0.007;entryY=0.158;entryDx=0;entryDy=0;entryPerimeter=0;labelBackgroundColor=none;strokeColor=#E07A5F;fontColor=default;fontStyle=1" edge="1" parent="1" source="GJyX6gk9V1ZS1GH2z5rf-36" target="GJyX6gk9V1ZS1GH2z5rf-37">
          <mxGeometry relative="1" as="geometry">
            <mxPoint x="270" y="530" as="sourcePoint" />
            <mxPoint x="430" y="530" as="targetPoint" />
          </mxGeometry>
        </mxCell>
        <mxCell id="GJyX6gk9V1ZS1GH2z5rf-41" value="&lt;b&gt;MCD&lt;/b&gt;" style="rounded=0;whiteSpace=wrap;html=1;labelBackgroundColor=none;fillColor=#F2CC8F;strokeColor=#E07A5F;fontColor=#393C56;" vertex="1" parent="1">
          <mxGeometry x="260" y="10" width="120" height="60" as="geometry" />
        </mxCell>
        <mxCell id="GJyX6gk9V1ZS1GH2z5rf-42" value="MLD" style="rounded=0;whiteSpace=wrap;html=1;labelBackgroundColor=none;fillColor=#F2CC8F;strokeColor=#E07A5F;fontColor=#393C56;fontStyle=1" vertex="1" parent="1">
          <mxGeometry x="330" y="840" width="120" height="60" as="geometry" />
        </mxCell>
        <mxCell id="GJyX6gk9V1ZS1GH2z5rf-43" value="Responsable" style="shape=table;startSize=30;container=1;collapsible=1;childLayout=tableLayout;fixedRows=1;rowLines=0;fontStyle=1;align=center;resizeLast=1;html=1;labelBackgroundColor=none;fillColor=#F2CC8F;strokeColor=#E07A5F;fontColor=#393C56;" vertex="1" parent="1">
          <mxGeometry x="41" y="930" width="180" height="190" as="geometry" />
        </mxCell>
        <mxCell id="GJyX6gk9V1ZS1GH2z5rf-44" value="" style="shape=tableRow;horizontal=0;startSize=0;swimlaneHead=0;swimlaneBody=0;fillColor=none;collapsible=0;dropTarget=0;points=[[0,0.5],[1,0.5]];portConstraint=eastwest;top=0;left=0;right=0;bottom=0;labelBackgroundColor=none;strokeColor=#E07A5F;fontColor=#393C56;fontStyle=1" vertex="1" parent="GJyX6gk9V1ZS1GH2z5rf-43">
          <mxGeometry y="30" width="180" height="30" as="geometry" />
        </mxCell>
        <mxCell id="GJyX6gk9V1ZS1GH2z5rf-45" value="&lt;span&gt;FK&lt;/span&gt;" style="shape=partialRectangle;connectable=0;fillColor=none;top=0;left=0;bottom=0;right=0;fontStyle=1;overflow=hidden;whiteSpace=wrap;html=1;labelBackgroundColor=none;strokeColor=#E07A5F;fontColor=#393C56;" vertex="1" parent="GJyX6gk9V1ZS1GH2z5rf-44">
          <mxGeometry width="30" height="30" as="geometry">
            <mxRectangle width="30" height="30" as="alternateBounds" />
          </mxGeometry>
        </mxCell>
        <mxCell id="GJyX6gk9V1ZS1GH2z5rf-46" value="&lt;span&gt;&lt;u&gt;IDEtablissement&lt;/u&gt;&lt;/span&gt;" style="shape=partialRectangle;connectable=0;fillColor=none;top=0;left=0;bottom=0;right=0;align=left;spacingLeft=6;fontStyle=1;overflow=hidden;whiteSpace=wrap;html=1;labelBackgroundColor=none;strokeColor=#E07A5F;fontColor=#393C56;" vertex="1" parent="GJyX6gk9V1ZS1GH2z5rf-44">
          <mxGeometry x="30" width="150" height="30" as="geometry">
            <mxRectangle width="150" height="30" as="alternateBounds" />
          </mxGeometry>
        </mxCell>
        <mxCell id="GJyX6gk9V1ZS1GH2z5rf-47" value="" style="shape=tableRow;horizontal=0;startSize=0;swimlaneHead=0;swimlaneBody=0;fillColor=none;collapsible=0;dropTarget=0;points=[[0,0.5],[1,0.5]];portConstraint=eastwest;top=0;left=0;right=0;bottom=1;labelBackgroundColor=none;strokeColor=#E07A5F;fontColor=#393C56;fontStyle=1" vertex="1" parent="GJyX6gk9V1ZS1GH2z5rf-43">
          <mxGeometry y="60" width="180" height="40" as="geometry" />
        </mxCell>
        <mxCell id="GJyX6gk9V1ZS1GH2z5rf-48" value="PK" style="shape=partialRectangle;connectable=0;fillColor=none;top=0;left=0;bottom=0;right=0;fontStyle=1;overflow=hidden;whiteSpace=wrap;html=1;labelBackgroundColor=none;strokeColor=#E07A5F;fontColor=#393C56;" vertex="1" parent="GJyX6gk9V1ZS1GH2z5rf-47">
          <mxGeometry width="30" height="40" as="geometry">
            <mxRectangle width="30" height="40" as="alternateBounds" />
          </mxGeometry>
        </mxCell>
        <mxCell id="GJyX6gk9V1ZS1GH2z5rf-49" value="IDResponsable" style="shape=partialRectangle;connectable=0;fillColor=none;top=0;left=0;bottom=0;right=0;align=left;spacingLeft=6;fontStyle=5;overflow=hidden;whiteSpace=wrap;html=1;labelBackgroundColor=none;strokeColor=#E07A5F;fontColor=#393C56;" vertex="1" parent="GJyX6gk9V1ZS1GH2z5rf-47">
          <mxGeometry x="30" width="150" height="40" as="geometry">
            <mxRectangle width="150" height="40" as="alternateBounds" />
          </mxGeometry>
        </mxCell>
        <mxCell id="GJyX6gk9V1ZS1GH2z5rf-50" value="" style="shape=tableRow;horizontal=0;startSize=0;swimlaneHead=0;swimlaneBody=0;fillColor=none;collapsible=0;dropTarget=0;points=[[0,0.5],[1,0.5]];portConstraint=eastwest;top=0;left=0;right=0;bottom=0;labelBackgroundColor=none;strokeColor=#E07A5F;fontColor=#393C56;fontStyle=1" vertex="1" parent="GJyX6gk9V1ZS1GH2z5rf-43">
          <mxGeometry y="100" width="180" height="30" as="geometry" />
        </mxCell>
        <mxCell id="GJyX6gk9V1ZS1GH2z5rf-51" value="" style="shape=partialRectangle;connectable=0;fillColor=none;top=0;left=0;bottom=0;right=0;editable=1;overflow=hidden;whiteSpace=wrap;html=1;labelBackgroundColor=none;strokeColor=#E07A5F;fontColor=#393C56;fontStyle=1" vertex="1" parent="GJyX6gk9V1ZS1GH2z5rf-50">
          <mxGeometry width="30" height="30" as="geometry">
            <mxRectangle width="30" height="30" as="alternateBounds" />
          </mxGeometry>
        </mxCell>
        <mxCell id="GJyX6gk9V1ZS1GH2z5rf-52" value="nom" style="shape=partialRectangle;connectable=0;fillColor=none;top=0;left=0;bottom=0;right=0;align=left;spacingLeft=6;overflow=hidden;whiteSpace=wrap;html=1;labelBackgroundColor=none;strokeColor=#E07A5F;fontColor=#393C56;fontStyle=1" vertex="1" parent="GJyX6gk9V1ZS1GH2z5rf-50">
          <mxGeometry x="30" width="150" height="30" as="geometry">
            <mxRectangle width="150" height="30" as="alternateBounds" />
          </mxGeometry>
        </mxCell>
        <mxCell id="GJyX6gk9V1ZS1GH2z5rf-53" value="" style="shape=tableRow;horizontal=0;startSize=0;swimlaneHead=0;swimlaneBody=0;fillColor=none;collapsible=0;dropTarget=0;points=[[0,0.5],[1,0.5]];portConstraint=eastwest;top=0;left=0;right=0;bottom=0;labelBackgroundColor=none;strokeColor=#E07A5F;fontColor=#393C56;fontStyle=1" vertex="1" parent="GJyX6gk9V1ZS1GH2z5rf-43">
          <mxGeometry y="130" width="180" height="30" as="geometry" />
        </mxCell>
        <mxCell id="GJyX6gk9V1ZS1GH2z5rf-54" value="" style="shape=partialRectangle;connectable=0;fillColor=none;top=0;left=0;bottom=0;right=0;editable=1;overflow=hidden;whiteSpace=wrap;html=1;labelBackgroundColor=none;strokeColor=#E07A5F;fontColor=#393C56;fontStyle=1" vertex="1" parent="GJyX6gk9V1ZS1GH2z5rf-53">
          <mxGeometry width="30" height="30" as="geometry">
            <mxRectangle width="30" height="30" as="alternateBounds" />
          </mxGeometry>
        </mxCell>
        <mxCell id="GJyX6gk9V1ZS1GH2z5rf-55" value="adresse email" style="shape=partialRectangle;connectable=0;fillColor=none;top=0;left=0;bottom=0;right=0;align=left;spacingLeft=6;overflow=hidden;whiteSpace=wrap;html=1;labelBackgroundColor=none;strokeColor=#E07A5F;fontColor=#393C56;fontStyle=1" vertex="1" parent="GJyX6gk9V1ZS1GH2z5rf-53">
          <mxGeometry x="30" width="150" height="30" as="geometry">
            <mxRectangle width="150" height="30" as="alternateBounds" />
          </mxGeometry>
        </mxCell>
        <mxCell id="GJyX6gk9V1ZS1GH2z5rf-56" value="" style="shape=tableRow;horizontal=0;startSize=0;swimlaneHead=0;swimlaneBody=0;fillColor=none;collapsible=0;dropTarget=0;points=[[0,0.5],[1,0.5]];portConstraint=eastwest;top=0;left=0;right=0;bottom=0;labelBackgroundColor=none;strokeColor=#E07A5F;fontColor=#393C56;fontStyle=1" vertex="1" parent="GJyX6gk9V1ZS1GH2z5rf-43">
          <mxGeometry y="160" width="180" height="30" as="geometry" />
        </mxCell>
        <mxCell id="GJyX6gk9V1ZS1GH2z5rf-57" value="" style="shape=partialRectangle;connectable=0;fillColor=none;top=0;left=0;bottom=0;right=0;editable=1;overflow=hidden;whiteSpace=wrap;html=1;labelBackgroundColor=none;strokeColor=#E07A5F;fontColor=#393C56;fontStyle=1" vertex="1" parent="GJyX6gk9V1ZS1GH2z5rf-56">
          <mxGeometry width="30" height="30" as="geometry">
            <mxRectangle width="30" height="30" as="alternateBounds" />
          </mxGeometry>
        </mxCell>
        <mxCell id="GJyX6gk9V1ZS1GH2z5rf-58" value="téléphone" style="shape=partialRectangle;connectable=0;fillColor=none;top=0;left=0;bottom=0;right=0;align=left;spacingLeft=6;overflow=hidden;whiteSpace=wrap;html=1;labelBackgroundColor=none;strokeColor=#E07A5F;fontColor=#393C56;fontStyle=1" vertex="1" parent="GJyX6gk9V1ZS1GH2z5rf-56">
          <mxGeometry x="30" width="150" height="30" as="geometry">
            <mxRectangle width="150" height="30" as="alternateBounds" />
          </mxGeometry>
        </mxCell>
        <mxCell id="GJyX6gk9V1ZS1GH2z5rf-59" value="Etablissement" style="shape=table;startSize=30;container=1;collapsible=1;childLayout=tableLayout;fixedRows=1;rowLines=0;fontStyle=1;align=center;resizeLast=1;html=1;strokeColor=#E07A5F;fontColor=#393C56;fillColor=#F2CC8F;" vertex="1" parent="1">
          <mxGeometry x="320" y="930" width="180" height="190" as="geometry" />
        </mxCell>
        <mxCell id="GJyX6gk9V1ZS1GH2z5rf-60" value="" style="shape=tableRow;horizontal=0;startSize=0;swimlaneHead=0;swimlaneBody=0;fillColor=none;collapsible=0;dropTarget=0;points=[[0,0.5],[1,0.5]];portConstraint=eastwest;top=0;left=0;right=0;bottom=1;strokeColor=#E07A5F;fontColor=#393C56;fontStyle=1" vertex="1" parent="GJyX6gk9V1ZS1GH2z5rf-59">
          <mxGeometry y="30" width="180" height="30" as="geometry" />
        </mxCell>
        <mxCell id="GJyX6gk9V1ZS1GH2z5rf-61" value="PK" style="shape=partialRectangle;connectable=0;fillColor=none;top=0;left=0;bottom=0;right=0;fontStyle=1;overflow=hidden;whiteSpace=wrap;html=1;strokeColor=#E07A5F;fontColor=#393C56;" vertex="1" parent="GJyX6gk9V1ZS1GH2z5rf-60">
          <mxGeometry width="30" height="30" as="geometry">
            <mxRectangle width="30" height="30" as="alternateBounds" />
          </mxGeometry>
        </mxCell>
        <mxCell id="GJyX6gk9V1ZS1GH2z5rf-62" value="IDEtablissement" style="shape=partialRectangle;connectable=0;fillColor=none;top=0;left=0;bottom=0;right=0;align=left;spacingLeft=6;fontStyle=5;overflow=hidden;whiteSpace=wrap;html=1;strokeColor=#E07A5F;fontColor=#393C56;" vertex="1" parent="GJyX6gk9V1ZS1GH2z5rf-60">
          <mxGeometry x="30" width="150" height="30" as="geometry">
            <mxRectangle width="150" height="30" as="alternateBounds" />
          </mxGeometry>
        </mxCell>
        <mxCell id="GJyX6gk9V1ZS1GH2z5rf-63" value="" style="shape=tableRow;horizontal=0;startSize=0;swimlaneHead=0;swimlaneBody=0;fillColor=none;collapsible=0;dropTarget=0;points=[[0,0.5],[1,0.5]];portConstraint=eastwest;top=0;left=0;right=0;bottom=0;strokeColor=#E07A5F;fontColor=#393C56;fontStyle=1" vertex="1" parent="GJyX6gk9V1ZS1GH2z5rf-59">
          <mxGeometry y="60" width="180" height="30" as="geometry" />
        </mxCell>
        <mxCell id="GJyX6gk9V1ZS1GH2z5rf-64" value="" style="shape=partialRectangle;connectable=0;fillColor=none;top=0;left=0;bottom=0;right=0;editable=1;overflow=hidden;whiteSpace=wrap;html=1;strokeColor=#E07A5F;fontColor=#393C56;fontStyle=1" vertex="1" parent="GJyX6gk9V1ZS1GH2z5rf-63">
          <mxGeometry width="30" height="30" as="geometry">
            <mxRectangle width="30" height="30" as="alternateBounds" />
          </mxGeometry>
        </mxCell>
        <mxCell id="GJyX6gk9V1ZS1GH2z5rf-65" value="nom" style="shape=partialRectangle;connectable=0;fillColor=none;top=0;left=0;bottom=0;right=0;align=left;spacingLeft=6;overflow=hidden;whiteSpace=wrap;html=1;strokeColor=#E07A5F;fontColor=#393C56;fontStyle=1" vertex="1" parent="GJyX6gk9V1ZS1GH2z5rf-63">
          <mxGeometry x="30" width="150" height="30" as="geometry">
            <mxRectangle width="150" height="30" as="alternateBounds" />
          </mxGeometry>
        </mxCell>
        <mxCell id="GJyX6gk9V1ZS1GH2z5rf-66" value="" style="shape=tableRow;horizontal=0;startSize=0;swimlaneHead=0;swimlaneBody=0;fillColor=none;collapsible=0;dropTarget=0;points=[[0,0.5],[1,0.5]];portConstraint=eastwest;top=0;left=0;right=0;bottom=0;strokeColor=#E07A5F;fontColor=#393C56;fontStyle=1" vertex="1" parent="GJyX6gk9V1ZS1GH2z5rf-59">
          <mxGeometry y="90" width="180" height="30" as="geometry" />
        </mxCell>
        <mxCell id="GJyX6gk9V1ZS1GH2z5rf-67" value="" style="shape=partialRectangle;connectable=0;fillColor=none;top=0;left=0;bottom=0;right=0;editable=1;overflow=hidden;whiteSpace=wrap;html=1;strokeColor=#E07A5F;fontColor=#393C56;fontStyle=1" vertex="1" parent="GJyX6gk9V1ZS1GH2z5rf-66">
          <mxGeometry width="30" height="30" as="geometry">
            <mxRectangle width="30" height="30" as="alternateBounds" />
          </mxGeometry>
        </mxCell>
        <mxCell id="GJyX6gk9V1ZS1GH2z5rf-68" value="adresse email" style="shape=partialRectangle;connectable=0;fillColor=none;top=0;left=0;bottom=0;right=0;align=left;spacingLeft=6;overflow=hidden;whiteSpace=wrap;html=1;strokeColor=#E07A5F;fontColor=#393C56;fontStyle=1" vertex="1" parent="GJyX6gk9V1ZS1GH2z5rf-66">
          <mxGeometry x="30" width="150" height="30" as="geometry">
            <mxRectangle width="150" height="30" as="alternateBounds" />
          </mxGeometry>
        </mxCell>
        <mxCell id="GJyX6gk9V1ZS1GH2z5rf-69" value="" style="shape=tableRow;horizontal=0;startSize=0;swimlaneHead=0;swimlaneBody=0;fillColor=none;collapsible=0;dropTarget=0;points=[[0,0.5],[1,0.5]];portConstraint=eastwest;top=0;left=0;right=0;bottom=0;strokeColor=#E07A5F;fontColor=#393C56;fontStyle=1" vertex="1" parent="GJyX6gk9V1ZS1GH2z5rf-59">
          <mxGeometry y="120" width="180" height="70" as="geometry" />
        </mxCell>
        <mxCell id="GJyX6gk9V1ZS1GH2z5rf-70" value="" style="shape=partialRectangle;connectable=0;fillColor=none;top=0;left=0;bottom=0;right=0;editable=1;overflow=hidden;whiteSpace=wrap;html=1;strokeColor=#E07A5F;fontColor=#393C56;fontStyle=1" vertex="1" parent="GJyX6gk9V1ZS1GH2z5rf-69">
          <mxGeometry width="30" height="70" as="geometry">
            <mxRectangle width="30" height="70" as="alternateBounds" />
          </mxGeometry>
        </mxCell>
        <mxCell id="GJyX6gk9V1ZS1GH2z5rf-71" value="téléphone&lt;br&gt;&lt;br&gt;adresse postale" style="shape=partialRectangle;connectable=0;fillColor=none;top=0;left=0;bottom=0;right=0;align=left;spacingLeft=6;overflow=hidden;whiteSpace=wrap;html=1;strokeColor=#E07A5F;fontColor=#393C56;fontStyle=1" vertex="1" parent="GJyX6gk9V1ZS1GH2z5rf-69">
          <mxGeometry x="30" width="150" height="70" as="geometry">
            <mxRectangle width="150" height="70" as="alternateBounds" />
          </mxGeometry>
        </mxCell>
        <mxCell id="GJyX6gk9V1ZS1GH2z5rf-72" value="Programmes" style="shape=table;startSize=30;container=1;collapsible=1;childLayout=tableLayout;fixedRows=1;rowLines=0;fontStyle=1;align=center;resizeLast=1;html=1;strokeColor=#E07A5F;fontColor=#393C56;fillColor=#F2CC8F;" vertex="1" parent="1">
          <mxGeometry x="580" y="930" width="180" height="180" as="geometry" />
        </mxCell>
        <mxCell id="GJyX6gk9V1ZS1GH2z5rf-73" value="" style="shape=tableRow;horizontal=0;startSize=0;swimlaneHead=0;swimlaneBody=0;fillColor=none;collapsible=0;dropTarget=0;points=[[0,0.5],[1,0.5]];portConstraint=eastwest;top=0;left=0;right=0;bottom=1;strokeColor=#E07A5F;fontColor=#393C56;" vertex="1" parent="GJyX6gk9V1ZS1GH2z5rf-72">
          <mxGeometry y="30" width="180" height="60" as="geometry" />
        </mxCell>
        <mxCell id="GJyX6gk9V1ZS1GH2z5rf-74" value="PK&lt;br&gt;&lt;br&gt;FK" style="shape=partialRectangle;connectable=0;fillColor=none;top=0;left=0;bottom=0;right=0;fontStyle=1;overflow=hidden;whiteSpace=wrap;html=1;strokeColor=#E07A5F;fontColor=#393C56;" vertex="1" parent="GJyX6gk9V1ZS1GH2z5rf-73">
          <mxGeometry width="30" height="60" as="geometry">
            <mxRectangle width="30" height="60" as="alternateBounds" />
          </mxGeometry>
        </mxCell>
        <mxCell id="GJyX6gk9V1ZS1GH2z5rf-75" value="IDProgrammes&lt;br&gt;&lt;br&gt;IDAssociation" style="shape=partialRectangle;connectable=0;fillColor=none;top=0;left=0;bottom=0;right=0;align=left;spacingLeft=6;fontStyle=5;overflow=hidden;whiteSpace=wrap;html=1;strokeColor=#E07A5F;fontColor=#393C56;" vertex="1" parent="GJyX6gk9V1ZS1GH2z5rf-73">
          <mxGeometry x="30" width="150" height="60" as="geometry">
            <mxRectangle width="150" height="60" as="alternateBounds" />
          </mxGeometry>
        </mxCell>
        <mxCell id="GJyX6gk9V1ZS1GH2z5rf-76" value="" style="shape=tableRow;horizontal=0;startSize=0;swimlaneHead=0;swimlaneBody=0;fillColor=none;collapsible=0;dropTarget=0;points=[[0,0.5],[1,0.5]];portConstraint=eastwest;top=0;left=0;right=0;bottom=0;strokeColor=#E07A5F;fontColor=#393C56;" vertex="1" parent="GJyX6gk9V1ZS1GH2z5rf-72">
          <mxGeometry y="90" width="180" height="30" as="geometry" />
        </mxCell>
        <mxCell id="GJyX6gk9V1ZS1GH2z5rf-77" value="" style="shape=partialRectangle;connectable=0;fillColor=none;top=0;left=0;bottom=0;right=0;editable=1;overflow=hidden;whiteSpace=wrap;html=1;strokeColor=#E07A5F;fontColor=#393C56;" vertex="1" parent="GJyX6gk9V1ZS1GH2z5rf-76">
          <mxGeometry width="30" height="30" as="geometry">
            <mxRectangle width="30" height="30" as="alternateBounds" />
          </mxGeometry>
        </mxCell>
        <mxCell id="GJyX6gk9V1ZS1GH2z5rf-78" value="&lt;b&gt;date début&lt;/b&gt;" style="shape=partialRectangle;connectable=0;fillColor=none;top=0;left=0;bottom=0;right=0;align=left;spacingLeft=6;overflow=hidden;whiteSpace=wrap;html=1;strokeColor=#E07A5F;fontColor=#393C56;" vertex="1" parent="GJyX6gk9V1ZS1GH2z5rf-76">
          <mxGeometry x="30" width="150" height="30" as="geometry">
            <mxRectangle width="150" height="30" as="alternateBounds" />
          </mxGeometry>
        </mxCell>
        <mxCell id="GJyX6gk9V1ZS1GH2z5rf-79" value="" style="shape=tableRow;horizontal=0;startSize=0;swimlaneHead=0;swimlaneBody=0;fillColor=none;collapsible=0;dropTarget=0;points=[[0,0.5],[1,0.5]];portConstraint=eastwest;top=0;left=0;right=0;bottom=0;strokeColor=#E07A5F;fontColor=#393C56;" vertex="1" parent="GJyX6gk9V1ZS1GH2z5rf-72">
          <mxGeometry y="120" width="180" height="30" as="geometry" />
        </mxCell>
        <mxCell id="GJyX6gk9V1ZS1GH2z5rf-80" value="" style="shape=partialRectangle;connectable=0;fillColor=none;top=0;left=0;bottom=0;right=0;editable=1;overflow=hidden;whiteSpace=wrap;html=1;strokeColor=#E07A5F;fontColor=#393C56;" vertex="1" parent="GJyX6gk9V1ZS1GH2z5rf-79">
          <mxGeometry width="30" height="30" as="geometry">
            <mxRectangle width="30" height="30" as="alternateBounds" />
          </mxGeometry>
        </mxCell>
        <mxCell id="GJyX6gk9V1ZS1GH2z5rf-81" value="date fin" style="shape=partialRectangle;connectable=0;fillColor=none;top=0;left=0;bottom=0;right=0;align=left;spacingLeft=6;overflow=hidden;whiteSpace=wrap;html=1;strokeColor=#E07A5F;fontColor=#393C56;fontStyle=1" vertex="1" parent="GJyX6gk9V1ZS1GH2z5rf-79">
          <mxGeometry x="30" width="150" height="30" as="geometry">
            <mxRectangle width="150" height="30" as="alternateBounds" />
          </mxGeometry>
        </mxCell>
        <mxCell id="GJyX6gk9V1ZS1GH2z5rf-82" value="" style="shape=tableRow;horizontal=0;startSize=0;swimlaneHead=0;swimlaneBody=0;fillColor=none;collapsible=0;dropTarget=0;points=[[0,0.5],[1,0.5]];portConstraint=eastwest;top=0;left=0;right=0;bottom=0;strokeColor=#E07A5F;fontColor=#393C56;" vertex="1" parent="GJyX6gk9V1ZS1GH2z5rf-72">
          <mxGeometry y="150" width="180" height="30" as="geometry" />
        </mxCell>
        <mxCell id="GJyX6gk9V1ZS1GH2z5rf-83" value="" style="shape=partialRectangle;connectable=0;fillColor=none;top=0;left=0;bottom=0;right=0;editable=1;overflow=hidden;whiteSpace=wrap;html=1;strokeColor=#E07A5F;fontColor=#393C56;" vertex="1" parent="GJyX6gk9V1ZS1GH2z5rf-82">
          <mxGeometry width="30" height="30" as="geometry">
            <mxRectangle width="30" height="30" as="alternateBounds" />
          </mxGeometry>
        </mxCell>
        <mxCell id="GJyX6gk9V1ZS1GH2z5rf-84" value="nom" style="shape=partialRectangle;connectable=0;fillColor=none;top=0;left=0;bottom=0;right=0;align=left;spacingLeft=6;overflow=hidden;whiteSpace=wrap;html=1;strokeColor=#E07A5F;fontColor=#393C56;fontStyle=1" vertex="1" parent="GJyX6gk9V1ZS1GH2z5rf-82">
          <mxGeometry x="30" width="150" height="30" as="geometry">
            <mxRectangle width="150" height="30" as="alternateBounds" />
          </mxGeometry>
        </mxCell>
        <mxCell id="GJyX6gk9V1ZS1GH2z5rf-85" value="Activiter" style="shape=table;startSize=30;container=1;collapsible=1;childLayout=tableLayout;fixedRows=1;rowLines=0;fontStyle=1;align=center;resizeLast=1;html=1;strokeColor=#E07A5F;fontColor=#393C56;fillColor=#F2CC8F;" vertex="1" parent="1">
          <mxGeometry x="580" y="1210" width="180" height="90" as="geometry" />
        </mxCell>
        <mxCell id="GJyX6gk9V1ZS1GH2z5rf-86" value="" style="shape=tableRow;horizontal=0;startSize=0;swimlaneHead=0;swimlaneBody=0;fillColor=none;collapsible=0;dropTarget=0;points=[[0,0.5],[1,0.5]];portConstraint=eastwest;top=0;left=0;right=0;bottom=1;strokeColor=#E07A5F;fontColor=#393C56;" vertex="1" parent="GJyX6gk9V1ZS1GH2z5rf-85">
          <mxGeometry y="30" width="180" height="30" as="geometry" />
        </mxCell>
        <mxCell id="GJyX6gk9V1ZS1GH2z5rf-87" value="PK" style="shape=partialRectangle;connectable=0;fillColor=none;top=0;left=0;bottom=0;right=0;fontStyle=1;overflow=hidden;whiteSpace=wrap;html=1;strokeColor=#E07A5F;fontColor=#393C56;" vertex="1" parent="GJyX6gk9V1ZS1GH2z5rf-86">
          <mxGeometry width="30" height="30" as="geometry">
            <mxRectangle width="30" height="30" as="alternateBounds" />
          </mxGeometry>
        </mxCell>
        <mxCell id="GJyX6gk9V1ZS1GH2z5rf-88" value="IDActiviter&lt;br&gt;" style="shape=partialRectangle;connectable=0;fillColor=none;top=0;left=0;bottom=0;right=0;align=left;spacingLeft=6;fontStyle=5;overflow=hidden;whiteSpace=wrap;html=1;strokeColor=#E07A5F;fontColor=#393C56;" vertex="1" parent="GJyX6gk9V1ZS1GH2z5rf-86">
          <mxGeometry x="30" width="150" height="30" as="geometry">
            <mxRectangle width="150" height="30" as="alternateBounds" />
          </mxGeometry>
        </mxCell>
        <mxCell id="GJyX6gk9V1ZS1GH2z5rf-89" value="" style="shape=tableRow;horizontal=0;startSize=0;swimlaneHead=0;swimlaneBody=0;fillColor=none;collapsible=0;dropTarget=0;points=[[0,0.5],[1,0.5]];portConstraint=eastwest;top=0;left=0;right=0;bottom=0;strokeColor=#E07A5F;fontColor=#393C56;" vertex="1" parent="GJyX6gk9V1ZS1GH2z5rf-85">
          <mxGeometry y="60" width="180" height="30" as="geometry" />
        </mxCell>
        <mxCell id="GJyX6gk9V1ZS1GH2z5rf-90" value="" style="shape=partialRectangle;connectable=0;fillColor=none;top=0;left=0;bottom=0;right=0;editable=1;overflow=hidden;whiteSpace=wrap;html=1;strokeColor=#E07A5F;fontColor=#393C56;fontStyle=1" vertex="1" parent="GJyX6gk9V1ZS1GH2z5rf-89">
          <mxGeometry width="30" height="30" as="geometry">
            <mxRectangle width="30" height="30" as="alternateBounds" />
          </mxGeometry>
        </mxCell>
        <mxCell id="GJyX6gk9V1ZS1GH2z5rf-91" value="nom d&#39;activiter" style="shape=partialRectangle;connectable=0;fillColor=none;top=0;left=0;bottom=0;right=0;align=left;spacingLeft=6;overflow=hidden;whiteSpace=wrap;html=1;strokeColor=#E07A5F;fontColor=#393C56;fontStyle=1" vertex="1" parent="GJyX6gk9V1ZS1GH2z5rf-89">
          <mxGeometry x="30" width="150" height="30" as="geometry">
            <mxRectangle width="150" height="30" as="alternateBounds" />
          </mxGeometry>
        </mxCell>
        <mxCell id="GJyX6gk9V1ZS1GH2z5rf-92" value="Association" style="shape=table;startSize=30;container=1;collapsible=1;childLayout=tableLayout;fixedRows=1;rowLines=0;fontStyle=1;align=center;resizeLast=1;html=1;strokeColor=#E07A5F;fontColor=#393C56;fillColor=#F2CC8F;" vertex="1" parent="1">
          <mxGeometry x="230" y="1200" width="180" height="150" as="geometry" />
        </mxCell>
        <mxCell id="GJyX6gk9V1ZS1GH2z5rf-93" value="" style="shape=tableRow;horizontal=0;startSize=0;swimlaneHead=0;swimlaneBody=0;fillColor=none;collapsible=0;dropTarget=0;points=[[0,0.5],[1,0.5]];portConstraint=eastwest;top=0;left=0;right=0;bottom=1;strokeColor=#E07A5F;fontColor=#393C56;fontStyle=1" vertex="1" parent="GJyX6gk9V1ZS1GH2z5rf-92">
          <mxGeometry y="30" width="180" height="30" as="geometry" />
        </mxCell>
        <mxCell id="GJyX6gk9V1ZS1GH2z5rf-94" value="PK" style="shape=partialRectangle;connectable=0;fillColor=none;top=0;left=0;bottom=0;right=0;fontStyle=1;overflow=hidden;whiteSpace=wrap;html=1;strokeColor=#E07A5F;fontColor=#393C56;" vertex="1" parent="GJyX6gk9V1ZS1GH2z5rf-93">
          <mxGeometry width="30" height="30" as="geometry">
            <mxRectangle width="30" height="30" as="alternateBounds" />
          </mxGeometry>
        </mxCell>
        <mxCell id="GJyX6gk9V1ZS1GH2z5rf-95" value="IDAssociation" style="shape=partialRectangle;connectable=0;fillColor=none;top=0;left=0;bottom=0;right=0;align=left;spacingLeft=6;fontStyle=5;overflow=hidden;whiteSpace=wrap;html=1;strokeColor=#E07A5F;fontColor=#393C56;" vertex="1" parent="GJyX6gk9V1ZS1GH2z5rf-93">
          <mxGeometry x="30" width="150" height="30" as="geometry">
            <mxRectangle width="150" height="30" as="alternateBounds" />
          </mxGeometry>
        </mxCell>
        <mxCell id="GJyX6gk9V1ZS1GH2z5rf-96" value="" style="shape=tableRow;horizontal=0;startSize=0;swimlaneHead=0;swimlaneBody=0;fillColor=none;collapsible=0;dropTarget=0;points=[[0,0.5],[1,0.5]];portConstraint=eastwest;top=0;left=0;right=0;bottom=0;strokeColor=#E07A5F;fontColor=#393C56;fontStyle=1" vertex="1" parent="GJyX6gk9V1ZS1GH2z5rf-92">
          <mxGeometry y="60" width="180" height="30" as="geometry" />
        </mxCell>
        <mxCell id="GJyX6gk9V1ZS1GH2z5rf-97" value="" style="shape=partialRectangle;connectable=0;fillColor=none;top=0;left=0;bottom=0;right=0;editable=1;overflow=hidden;whiteSpace=wrap;html=1;strokeColor=#E07A5F;fontColor=#393C56;fontStyle=1" vertex="1" parent="GJyX6gk9V1ZS1GH2z5rf-96">
          <mxGeometry width="30" height="30" as="geometry">
            <mxRectangle width="30" height="30" as="alternateBounds" />
          </mxGeometry>
        </mxCell>
        <mxCell id="GJyX6gk9V1ZS1GH2z5rf-98" value="nom" style="shape=partialRectangle;connectable=0;fillColor=none;top=0;left=0;bottom=0;right=0;align=left;spacingLeft=6;overflow=hidden;whiteSpace=wrap;html=1;strokeColor=#E07A5F;fontColor=#393C56;fontStyle=1" vertex="1" parent="GJyX6gk9V1ZS1GH2z5rf-96">
          <mxGeometry x="30" width="150" height="30" as="geometry">
            <mxRectangle width="150" height="30" as="alternateBounds" />
          </mxGeometry>
        </mxCell>
        <mxCell id="GJyX6gk9V1ZS1GH2z5rf-99" value="" style="shape=tableRow;horizontal=0;startSize=0;swimlaneHead=0;swimlaneBody=0;fillColor=none;collapsible=0;dropTarget=0;points=[[0,0.5],[1,0.5]];portConstraint=eastwest;top=0;left=0;right=0;bottom=0;strokeColor=#E07A5F;fontColor=#393C56;fontStyle=1" vertex="1" parent="GJyX6gk9V1ZS1GH2z5rf-92">
          <mxGeometry y="90" width="180" height="30" as="geometry" />
        </mxCell>
        <mxCell id="GJyX6gk9V1ZS1GH2z5rf-100" value="" style="shape=partialRectangle;connectable=0;fillColor=none;top=0;left=0;bottom=0;right=0;editable=1;overflow=hidden;whiteSpace=wrap;html=1;strokeColor=#E07A5F;fontColor=#393C56;fontStyle=1" vertex="1" parent="GJyX6gk9V1ZS1GH2z5rf-99">
          <mxGeometry width="30" height="30" as="geometry">
            <mxRectangle width="30" height="30" as="alternateBounds" />
          </mxGeometry>
        </mxCell>
        <mxCell id="GJyX6gk9V1ZS1GH2z5rf-101" value="adresse email" style="shape=partialRectangle;connectable=0;fillColor=none;top=0;left=0;bottom=0;right=0;align=left;spacingLeft=6;overflow=hidden;whiteSpace=wrap;html=1;strokeColor=#E07A5F;fontColor=#393C56;fontStyle=1" vertex="1" parent="GJyX6gk9V1ZS1GH2z5rf-99">
          <mxGeometry x="30" width="150" height="30" as="geometry">
            <mxRectangle width="150" height="30" as="alternateBounds" />
          </mxGeometry>
        </mxCell>
        <mxCell id="GJyX6gk9V1ZS1GH2z5rf-102" value="" style="shape=tableRow;horizontal=0;startSize=0;swimlaneHead=0;swimlaneBody=0;fillColor=none;collapsible=0;dropTarget=0;points=[[0,0.5],[1,0.5]];portConstraint=eastwest;top=0;left=0;right=0;bottom=0;strokeColor=#E07A5F;fontColor=#393C56;fontStyle=1" vertex="1" parent="GJyX6gk9V1ZS1GH2z5rf-92">
          <mxGeometry y="120" width="180" height="30" as="geometry" />
        </mxCell>
        <mxCell id="GJyX6gk9V1ZS1GH2z5rf-103" value="" style="shape=partialRectangle;connectable=0;fillColor=none;top=0;left=0;bottom=0;right=0;editable=1;overflow=hidden;whiteSpace=wrap;html=1;strokeColor=#E07A5F;fontColor=#393C56;fontStyle=1" vertex="1" parent="GJyX6gk9V1ZS1GH2z5rf-102">
          <mxGeometry width="30" height="30" as="geometry">
            <mxRectangle width="30" height="30" as="alternateBounds" />
          </mxGeometry>
        </mxCell>
        <mxCell id="GJyX6gk9V1ZS1GH2z5rf-104" value="téléphone" style="shape=partialRectangle;connectable=0;fillColor=none;top=0;left=0;bottom=0;right=0;align=left;spacingLeft=6;overflow=hidden;whiteSpace=wrap;html=1;strokeColor=#E07A5F;fontColor=#393C56;fontStyle=1" vertex="1" parent="GJyX6gk9V1ZS1GH2z5rf-102">
          <mxGeometry x="30" width="150" height="30" as="geometry">
            <mxRectangle width="150" height="30" as="alternateBounds" />
          </mxGeometry>
        </mxCell>
        <mxCell id="GJyX6gk9V1ZS1GH2z5rf-105" value="Donneur" style="shape=table;startSize=30;container=1;collapsible=1;childLayout=tableLayout;fixedRows=1;rowLines=0;fontStyle=1;align=center;resizeLast=1;html=1;strokeColor=#E07A5F;fontColor=#393C56;fillColor=#F2CC8F;" vertex="1" parent="1">
          <mxGeometry x="71" y="1440" width="180" height="190" as="geometry" />
        </mxCell>
        <mxCell id="GJyX6gk9V1ZS1GH2z5rf-106" value="" style="shape=tableRow;horizontal=0;startSize=0;swimlaneHead=0;swimlaneBody=0;fillColor=none;collapsible=0;dropTarget=0;points=[[0,0.5],[1,0.5]];portConstraint=eastwest;top=0;left=0;right=0;bottom=1;strokeColor=#E07A5F;fontColor=#393C56;fontStyle=1" vertex="1" parent="GJyX6gk9V1ZS1GH2z5rf-105">
          <mxGeometry y="30" width="180" height="30" as="geometry" />
        </mxCell>
        <mxCell id="GJyX6gk9V1ZS1GH2z5rf-107" value="PK" style="shape=partialRectangle;connectable=0;fillColor=none;top=0;left=0;bottom=0;right=0;fontStyle=1;overflow=hidden;whiteSpace=wrap;html=1;strokeColor=#E07A5F;fontColor=#393C56;" vertex="1" parent="GJyX6gk9V1ZS1GH2z5rf-106">
          <mxGeometry width="30" height="30" as="geometry">
            <mxRectangle width="30" height="30" as="alternateBounds" />
          </mxGeometry>
        </mxCell>
        <mxCell id="GJyX6gk9V1ZS1GH2z5rf-108" value="IDDonneur" style="shape=partialRectangle;connectable=0;fillColor=none;top=0;left=0;bottom=0;right=0;align=left;spacingLeft=6;fontStyle=5;overflow=hidden;whiteSpace=wrap;html=1;strokeColor=#E07A5F;fontColor=#393C56;" vertex="1" parent="GJyX6gk9V1ZS1GH2z5rf-106">
          <mxGeometry x="30" width="150" height="30" as="geometry">
            <mxRectangle width="150" height="30" as="alternateBounds" />
          </mxGeometry>
        </mxCell>
        <mxCell id="GJyX6gk9V1ZS1GH2z5rf-109" value="" style="shape=tableRow;horizontal=0;startSize=0;swimlaneHead=0;swimlaneBody=0;fillColor=none;collapsible=0;dropTarget=0;points=[[0,0.5],[1,0.5]];portConstraint=eastwest;top=0;left=0;right=0;bottom=0;strokeColor=#E07A5F;fontColor=#393C56;fontStyle=1" vertex="1" parent="GJyX6gk9V1ZS1GH2z5rf-105">
          <mxGeometry y="60" width="180" height="30" as="geometry" />
        </mxCell>
        <mxCell id="GJyX6gk9V1ZS1GH2z5rf-110" value="" style="shape=partialRectangle;connectable=0;fillColor=none;top=0;left=0;bottom=0;right=0;editable=1;overflow=hidden;whiteSpace=wrap;html=1;strokeColor=#E07A5F;fontColor=#393C56;fontStyle=1" vertex="1" parent="GJyX6gk9V1ZS1GH2z5rf-109">
          <mxGeometry width="30" height="30" as="geometry">
            <mxRectangle width="30" height="30" as="alternateBounds" />
          </mxGeometry>
        </mxCell>
        <mxCell id="GJyX6gk9V1ZS1GH2z5rf-111" value="nom" style="shape=partialRectangle;connectable=0;fillColor=none;top=0;left=0;bottom=0;right=0;align=left;spacingLeft=6;overflow=hidden;whiteSpace=wrap;html=1;strokeColor=#E07A5F;fontColor=#393C56;fontStyle=1" vertex="1" parent="GJyX6gk9V1ZS1GH2z5rf-109">
          <mxGeometry x="30" width="150" height="30" as="geometry">
            <mxRectangle width="150" height="30" as="alternateBounds" />
          </mxGeometry>
        </mxCell>
        <mxCell id="GJyX6gk9V1ZS1GH2z5rf-112" value="" style="shape=tableRow;horizontal=0;startSize=0;swimlaneHead=0;swimlaneBody=0;fillColor=none;collapsible=0;dropTarget=0;points=[[0,0.5],[1,0.5]];portConstraint=eastwest;top=0;left=0;right=0;bottom=0;strokeColor=#E07A5F;fontColor=#393C56;fontStyle=1" vertex="1" parent="GJyX6gk9V1ZS1GH2z5rf-105">
          <mxGeometry y="90" width="180" height="30" as="geometry" />
        </mxCell>
        <mxCell id="GJyX6gk9V1ZS1GH2z5rf-113" value="" style="shape=partialRectangle;connectable=0;fillColor=none;top=0;left=0;bottom=0;right=0;editable=1;overflow=hidden;whiteSpace=wrap;html=1;strokeColor=#E07A5F;fontColor=#393C56;fontStyle=1" vertex="1" parent="GJyX6gk9V1ZS1GH2z5rf-112">
          <mxGeometry width="30" height="30" as="geometry">
            <mxRectangle width="30" height="30" as="alternateBounds" />
          </mxGeometry>
        </mxCell>
        <mxCell id="GJyX6gk9V1ZS1GH2z5rf-114" value="prénom" style="shape=partialRectangle;connectable=0;fillColor=none;top=0;left=0;bottom=0;right=0;align=left;spacingLeft=6;overflow=hidden;whiteSpace=wrap;html=1;strokeColor=#E07A5F;fontColor=#393C56;fontStyle=1" vertex="1" parent="GJyX6gk9V1ZS1GH2z5rf-112">
          <mxGeometry x="30" width="150" height="30" as="geometry">
            <mxRectangle width="150" height="30" as="alternateBounds" />
          </mxGeometry>
        </mxCell>
        <mxCell id="GJyX6gk9V1ZS1GH2z5rf-115" value="" style="shape=tableRow;horizontal=0;startSize=0;swimlaneHead=0;swimlaneBody=0;fillColor=none;collapsible=0;dropTarget=0;points=[[0,0.5],[1,0.5]];portConstraint=eastwest;top=0;left=0;right=0;bottom=0;strokeColor=#E07A5F;fontColor=#393C56;" vertex="1" parent="GJyX6gk9V1ZS1GH2z5rf-105">
          <mxGeometry y="120" width="180" height="70" as="geometry" />
        </mxCell>
        <mxCell id="GJyX6gk9V1ZS1GH2z5rf-116" value="" style="shape=partialRectangle;connectable=0;fillColor=none;top=0;left=0;bottom=0;right=0;editable=1;overflow=hidden;whiteSpace=wrap;html=1;strokeColor=#E07A5F;fontColor=#393C56;" vertex="1" parent="GJyX6gk9V1ZS1GH2z5rf-115">
          <mxGeometry width="30" height="70" as="geometry">
            <mxRectangle width="30" height="70" as="alternateBounds" />
          </mxGeometry>
        </mxCell>
        <mxCell id="GJyX6gk9V1ZS1GH2z5rf-117" value="email&lt;br&gt;&lt;br&gt;adresse postale" style="shape=partialRectangle;connectable=0;fillColor=none;top=0;left=0;bottom=0;right=0;align=left;spacingLeft=6;overflow=hidden;whiteSpace=wrap;html=1;strokeColor=#E07A5F;fontColor=#393C56;fontStyle=1" vertex="1" parent="GJyX6gk9V1ZS1GH2z5rf-115">
          <mxGeometry x="30" width="150" height="70" as="geometry">
            <mxRectangle width="150" height="70" as="alternateBounds" />
          </mxGeometry>
        </mxCell>
        <mxCell id="GJyX6gk9V1ZS1GH2z5rf-118" value="Don" style="shape=table;startSize=30;container=1;collapsible=1;childLayout=tableLayout;fixedRows=1;rowLines=0;fontStyle=1;align=center;resizeLast=1;html=1;strokeColor=#E07A5F;fontColor=#393C56;fillColor=#F2CC8F;" vertex="1" parent="1">
          <mxGeometry x="350" y="1440" width="180" height="160" as="geometry" />
        </mxCell>
        <mxCell id="GJyX6gk9V1ZS1GH2z5rf-119" value="" style="shape=tableRow;horizontal=0;startSize=0;swimlaneHead=0;swimlaneBody=0;fillColor=none;collapsible=0;dropTarget=0;points=[[0,0.5],[1,0.5]];portConstraint=eastwest;top=0;left=0;right=0;bottom=1;strokeColor=#E07A5F;fontColor=#393C56;fontStyle=1" vertex="1" parent="GJyX6gk9V1ZS1GH2z5rf-118">
          <mxGeometry y="30" width="180" height="70" as="geometry" />
        </mxCell>
        <mxCell id="GJyX6gk9V1ZS1GH2z5rf-120" value="PK&lt;br&gt;&lt;br&gt;FK" style="shape=partialRectangle;connectable=0;fillColor=none;top=0;left=0;bottom=0;right=0;fontStyle=1;overflow=hidden;whiteSpace=wrap;html=1;strokeColor=#E07A5F;fontColor=#393C56;" vertex="1" parent="GJyX6gk9V1ZS1GH2z5rf-119">
          <mxGeometry width="30" height="70" as="geometry">
            <mxRectangle width="30" height="70" as="alternateBounds" />
          </mxGeometry>
        </mxCell>
        <mxCell id="GJyX6gk9V1ZS1GH2z5rf-121" value="IDDon&lt;br&gt;&lt;br&gt;IDDonneur" style="shape=partialRectangle;connectable=0;fillColor=none;top=0;left=0;bottom=0;right=0;align=left;spacingLeft=6;fontStyle=5;overflow=hidden;whiteSpace=wrap;html=1;strokeColor=#E07A5F;fontColor=#393C56;" vertex="1" parent="GJyX6gk9V1ZS1GH2z5rf-119">
          <mxGeometry x="30" width="150" height="70" as="geometry">
            <mxRectangle width="150" height="70" as="alternateBounds" />
          </mxGeometry>
        </mxCell>
        <mxCell id="GJyX6gk9V1ZS1GH2z5rf-122" value="" style="shape=tableRow;horizontal=0;startSize=0;swimlaneHead=0;swimlaneBody=0;fillColor=none;collapsible=0;dropTarget=0;points=[[0,0.5],[1,0.5]];portConstraint=eastwest;top=0;left=0;right=0;bottom=0;strokeColor=#E07A5F;fontColor=#393C56;fontStyle=1" vertex="1" parent="GJyX6gk9V1ZS1GH2z5rf-118">
          <mxGeometry y="100" width="180" height="30" as="geometry" />
        </mxCell>
        <mxCell id="GJyX6gk9V1ZS1GH2z5rf-123" value="" style="shape=partialRectangle;connectable=0;fillColor=none;top=0;left=0;bottom=0;right=0;editable=1;overflow=hidden;whiteSpace=wrap;html=1;strokeColor=#E07A5F;fontColor=#393C56;fontStyle=1" vertex="1" parent="GJyX6gk9V1ZS1GH2z5rf-122">
          <mxGeometry width="30" height="30" as="geometry">
            <mxRectangle width="30" height="30" as="alternateBounds" />
          </mxGeometry>
        </mxCell>
        <mxCell id="GJyX6gk9V1ZS1GH2z5rf-124" value="montant" style="shape=partialRectangle;connectable=0;fillColor=none;top=0;left=0;bottom=0;right=0;align=left;spacingLeft=6;overflow=hidden;whiteSpace=wrap;html=1;strokeColor=#E07A5F;fontColor=#393C56;fontStyle=1" vertex="1" parent="GJyX6gk9V1ZS1GH2z5rf-122">
          <mxGeometry x="30" width="150" height="30" as="geometry">
            <mxRectangle width="150" height="30" as="alternateBounds" />
          </mxGeometry>
        </mxCell>
        <mxCell id="GJyX6gk9V1ZS1GH2z5rf-125" value="" style="shape=tableRow;horizontal=0;startSize=0;swimlaneHead=0;swimlaneBody=0;fillColor=none;collapsible=0;dropTarget=0;points=[[0,0.5],[1,0.5]];portConstraint=eastwest;top=0;left=0;right=0;bottom=0;strokeColor=#E07A5F;fontColor=#393C56;fontStyle=1" vertex="1" parent="GJyX6gk9V1ZS1GH2z5rf-118">
          <mxGeometry y="130" width="180" height="30" as="geometry" />
        </mxCell>
        <mxCell id="GJyX6gk9V1ZS1GH2z5rf-126" value="" style="shape=partialRectangle;connectable=0;fillColor=none;top=0;left=0;bottom=0;right=0;editable=1;overflow=hidden;whiteSpace=wrap;html=1;strokeColor=#E07A5F;fontColor=#393C56;fontStyle=1" vertex="1" parent="GJyX6gk9V1ZS1GH2z5rf-125">
          <mxGeometry width="30" height="30" as="geometry">
            <mxRectangle width="30" height="30" as="alternateBounds" />
          </mxGeometry>
        </mxCell>
        <mxCell id="GJyX6gk9V1ZS1GH2z5rf-127" value="date" style="shape=partialRectangle;connectable=0;fillColor=none;top=0;left=0;bottom=0;right=0;align=left;spacingLeft=6;overflow=hidden;whiteSpace=wrap;html=1;strokeColor=#E07A5F;fontColor=#393C56;fontStyle=1" vertex="1" parent="GJyX6gk9V1ZS1GH2z5rf-125">
          <mxGeometry x="30" width="150" height="30" as="geometry">
            <mxRectangle width="150" height="30" as="alternateBounds" />
          </mxGeometry>
        </mxCell>
        <mxCell id="GJyX6gk9V1ZS1GH2z5rf-128" value="" style="verticalLabelPosition=bottom;verticalAlign=top;html=1;shape=mxgraph.basic.rect;fillColor2=none;strokeWidth=1;size=20;indent=5;strokeColor=#E07A5F;fontColor=#393C56;fillColor=#F2CC8F;" vertex="1" parent="1">
          <mxGeometry x="354" y="1720" width="120" height="60" as="geometry" />
        </mxCell>
        <mxCell id="GJyX6gk9V1ZS1GH2z5rf-129" value="Etablissement/Responsable" style="shape=table;startSize=30;container=1;collapsible=1;childLayout=tableLayout;fixedRows=1;rowLines=0;fontStyle=1;align=center;resizeLast=1;html=1;whiteSpace=wrap;strokeColor=#E07A5F;fontColor=#393C56;fillColor=#F2CC8F;" vertex="1" parent="1">
          <mxGeometry x="56" y="1910" width="180" height="150" as="geometry" />
        </mxCell>
        <mxCell id="GJyX6gk9V1ZS1GH2z5rf-130" value="" style="shape=tableRow;horizontal=0;startSize=0;swimlaneHead=0;swimlaneBody=0;fillColor=none;collapsible=0;dropTarget=0;points=[[0,0.5],[1,0.5]];portConstraint=eastwest;top=0;left=0;right=0;bottom=0;html=1;strokeColor=#E07A5F;fontColor=#393C56;fontStyle=1" vertex="1" parent="GJyX6gk9V1ZS1GH2z5rf-129">
          <mxGeometry y="30" width="180" height="30" as="geometry" />
        </mxCell>
        <mxCell id="GJyX6gk9V1ZS1GH2z5rf-131" value="PK,FK1" style="shape=partialRectangle;connectable=0;fillColor=none;top=0;left=0;bottom=0;right=0;fontStyle=1;overflow=hidden;html=1;whiteSpace=wrap;strokeColor=#E07A5F;fontColor=#393C56;" vertex="1" parent="GJyX6gk9V1ZS1GH2z5rf-130">
          <mxGeometry width="60" height="30" as="geometry">
            <mxRectangle width="60" height="30" as="alternateBounds" />
          </mxGeometry>
        </mxCell>
        <mxCell id="GJyX6gk9V1ZS1GH2z5rf-132" value="IDEtablissement" style="shape=partialRectangle;connectable=0;fillColor=none;top=0;left=0;bottom=0;right=0;align=left;spacingLeft=6;fontStyle=5;overflow=hidden;html=1;whiteSpace=wrap;strokeColor=#E07A5F;fontColor=#393C56;" vertex="1" parent="GJyX6gk9V1ZS1GH2z5rf-130">
          <mxGeometry x="60" width="120" height="30" as="geometry">
            <mxRectangle width="120" height="30" as="alternateBounds" />
          </mxGeometry>
        </mxCell>
        <mxCell id="GJyX6gk9V1ZS1GH2z5rf-133" value="" style="shape=tableRow;horizontal=0;startSize=0;swimlaneHead=0;swimlaneBody=0;fillColor=none;collapsible=0;dropTarget=0;points=[[0,0.5],[1,0.5]];portConstraint=eastwest;top=0;left=0;right=0;bottom=1;html=1;strokeColor=#E07A5F;fontColor=#393C56;fontStyle=1" vertex="1" parent="GJyX6gk9V1ZS1GH2z5rf-129">
          <mxGeometry y="60" width="180" height="30" as="geometry" />
        </mxCell>
        <mxCell id="GJyX6gk9V1ZS1GH2z5rf-134" value="PK,FK2" style="shape=partialRectangle;connectable=0;fillColor=none;top=0;left=0;bottom=0;right=0;fontStyle=1;overflow=hidden;html=1;whiteSpace=wrap;strokeColor=#E07A5F;fontColor=#393C56;" vertex="1" parent="GJyX6gk9V1ZS1GH2z5rf-133">
          <mxGeometry width="60" height="30" as="geometry">
            <mxRectangle width="60" height="30" as="alternateBounds" />
          </mxGeometry>
        </mxCell>
        <mxCell id="GJyX6gk9V1ZS1GH2z5rf-135" value="IDResponsable" style="shape=partialRectangle;connectable=0;fillColor=none;top=0;left=0;bottom=0;right=0;align=left;spacingLeft=6;fontStyle=5;overflow=hidden;html=1;whiteSpace=wrap;strokeColor=#E07A5F;fontColor=#393C56;" vertex="1" parent="GJyX6gk9V1ZS1GH2z5rf-133">
          <mxGeometry x="60" width="120" height="30" as="geometry">
            <mxRectangle width="120" height="30" as="alternateBounds" />
          </mxGeometry>
        </mxCell>
        <mxCell id="GJyX6gk9V1ZS1GH2z5rf-136" value="" style="shape=tableRow;horizontal=0;startSize=0;swimlaneHead=0;swimlaneBody=0;fillColor=none;collapsible=0;dropTarget=0;points=[[0,0.5],[1,0.5]];portConstraint=eastwest;top=0;left=0;right=0;bottom=0;html=1;strokeColor=#E07A5F;fontColor=#393C56;fontStyle=1" vertex="1" parent="GJyX6gk9V1ZS1GH2z5rf-129">
          <mxGeometry y="90" width="180" height="30" as="geometry" />
        </mxCell>
        <mxCell id="GJyX6gk9V1ZS1GH2z5rf-137" value="" style="shape=partialRectangle;connectable=0;fillColor=none;top=0;left=0;bottom=0;right=0;editable=1;overflow=hidden;html=1;whiteSpace=wrap;strokeColor=#E07A5F;fontColor=#393C56;fontStyle=1" vertex="1" parent="GJyX6gk9V1ZS1GH2z5rf-136">
          <mxGeometry width="60" height="30" as="geometry">
            <mxRectangle width="60" height="30" as="alternateBounds" />
          </mxGeometry>
        </mxCell>
        <mxCell id="GJyX6gk9V1ZS1GH2z5rf-138" value="Row 3" style="shape=partialRectangle;connectable=0;fillColor=none;top=0;left=0;bottom=0;right=0;align=left;spacingLeft=6;overflow=hidden;html=1;whiteSpace=wrap;strokeColor=#E07A5F;fontColor=#393C56;fontStyle=1" vertex="1" parent="GJyX6gk9V1ZS1GH2z5rf-136">
          <mxGeometry x="60" width="120" height="30" as="geometry">
            <mxRectangle width="120" height="30" as="alternateBounds" />
          </mxGeometry>
        </mxCell>
        <mxCell id="GJyX6gk9V1ZS1GH2z5rf-139" value="" style="shape=tableRow;horizontal=0;startSize=0;swimlaneHead=0;swimlaneBody=0;fillColor=none;collapsible=0;dropTarget=0;points=[[0,0.5],[1,0.5]];portConstraint=eastwest;top=0;left=0;right=0;bottom=0;html=1;strokeColor=#E07A5F;fontColor=#393C56;fontStyle=1" vertex="1" parent="GJyX6gk9V1ZS1GH2z5rf-129">
          <mxGeometry y="120" width="180" height="30" as="geometry" />
        </mxCell>
        <mxCell id="GJyX6gk9V1ZS1GH2z5rf-140" value="" style="shape=partialRectangle;connectable=0;fillColor=none;top=0;left=0;bottom=0;right=0;editable=1;overflow=hidden;html=1;whiteSpace=wrap;strokeColor=#E07A5F;fontColor=#393C56;fontStyle=1" vertex="1" parent="GJyX6gk9V1ZS1GH2z5rf-139">
          <mxGeometry width="60" height="30" as="geometry">
            <mxRectangle width="60" height="30" as="alternateBounds" />
          </mxGeometry>
        </mxCell>
        <mxCell id="GJyX6gk9V1ZS1GH2z5rf-141" value="Row 4" style="shape=partialRectangle;connectable=0;fillColor=none;top=0;left=0;bottom=0;right=0;align=left;spacingLeft=6;overflow=hidden;html=1;whiteSpace=wrap;strokeColor=#E07A5F;fontColor=#393C56;fontStyle=1" vertex="1" parent="GJyX6gk9V1ZS1GH2z5rf-139">
          <mxGeometry x="60" width="120" height="30" as="geometry">
            <mxRectangle width="120" height="30" as="alternateBounds" />
          </mxGeometry>
        </mxCell>
        <mxCell id="GJyX6gk9V1ZS1GH2z5rf-142" value="Programmes/Activiter" style="shape=table;startSize=30;container=1;collapsible=1;childLayout=tableLayout;fixedRows=1;rowLines=0;fontStyle=1;align=center;resizeLast=1;html=1;whiteSpace=wrap;strokeColor=#E07A5F;fontColor=#393C56;fillColor=#F2CC8F;" vertex="1" parent="1">
          <mxGeometry x="330" y="1910" width="180" height="150" as="geometry" />
        </mxCell>
        <mxCell id="GJyX6gk9V1ZS1GH2z5rf-143" value="" style="shape=tableRow;horizontal=0;startSize=0;swimlaneHead=0;swimlaneBody=0;fillColor=none;collapsible=0;dropTarget=0;points=[[0,0.5],[1,0.5]];portConstraint=eastwest;top=0;left=0;right=0;bottom=0;html=1;strokeColor=#E07A5F;fontColor=#393C56;fontStyle=1" vertex="1" parent="GJyX6gk9V1ZS1GH2z5rf-142">
          <mxGeometry y="30" width="180" height="30" as="geometry" />
        </mxCell>
        <mxCell id="GJyX6gk9V1ZS1GH2z5rf-144" value="PK,FK1" style="shape=partialRectangle;connectable=0;fillColor=none;top=0;left=0;bottom=0;right=0;fontStyle=1;overflow=hidden;html=1;whiteSpace=wrap;strokeColor=#E07A5F;fontColor=#393C56;" vertex="1" parent="GJyX6gk9V1ZS1GH2z5rf-143">
          <mxGeometry width="56" height="30" as="geometry">
            <mxRectangle width="56" height="30" as="alternateBounds" />
          </mxGeometry>
        </mxCell>
        <mxCell id="GJyX6gk9V1ZS1GH2z5rf-145" value="IDProgrammes" style="shape=partialRectangle;connectable=0;fillColor=none;top=0;left=0;bottom=0;right=0;align=left;spacingLeft=6;fontStyle=5;overflow=hidden;html=1;whiteSpace=wrap;strokeColor=#E07A5F;fontColor=#393C56;" vertex="1" parent="GJyX6gk9V1ZS1GH2z5rf-143">
          <mxGeometry x="56" width="124" height="30" as="geometry">
            <mxRectangle width="124" height="30" as="alternateBounds" />
          </mxGeometry>
        </mxCell>
        <mxCell id="GJyX6gk9V1ZS1GH2z5rf-146" value="" style="shape=tableRow;horizontal=0;startSize=0;swimlaneHead=0;swimlaneBody=0;fillColor=none;collapsible=0;dropTarget=0;points=[[0,0.5],[1,0.5]];portConstraint=eastwest;top=0;left=0;right=0;bottom=1;html=1;strokeColor=#E07A5F;fontColor=#393C56;fontStyle=1" vertex="1" parent="GJyX6gk9V1ZS1GH2z5rf-142">
          <mxGeometry y="60" width="180" height="30" as="geometry" />
        </mxCell>
        <mxCell id="GJyX6gk9V1ZS1GH2z5rf-147" value="PK,FK2" style="shape=partialRectangle;connectable=0;fillColor=none;top=0;left=0;bottom=0;right=0;fontStyle=1;overflow=hidden;html=1;whiteSpace=wrap;strokeColor=#E07A5F;fontColor=#393C56;" vertex="1" parent="GJyX6gk9V1ZS1GH2z5rf-146">
          <mxGeometry width="56" height="30" as="geometry">
            <mxRectangle width="56" height="30" as="alternateBounds" />
          </mxGeometry>
        </mxCell>
        <mxCell id="GJyX6gk9V1ZS1GH2z5rf-148" value="IDActiviter" style="shape=partialRectangle;connectable=0;fillColor=none;top=0;left=0;bottom=0;right=0;align=left;spacingLeft=6;fontStyle=5;overflow=hidden;html=1;whiteSpace=wrap;strokeColor=#E07A5F;fontColor=#393C56;" vertex="1" parent="GJyX6gk9V1ZS1GH2z5rf-146">
          <mxGeometry x="56" width="124" height="30" as="geometry">
            <mxRectangle width="124" height="30" as="alternateBounds" />
          </mxGeometry>
        </mxCell>
        <mxCell id="GJyX6gk9V1ZS1GH2z5rf-149" value="" style="shape=tableRow;horizontal=0;startSize=0;swimlaneHead=0;swimlaneBody=0;fillColor=none;collapsible=0;dropTarget=0;points=[[0,0.5],[1,0.5]];portConstraint=eastwest;top=0;left=0;right=0;bottom=0;html=1;strokeColor=#E07A5F;fontColor=#393C56;fontStyle=1" vertex="1" parent="GJyX6gk9V1ZS1GH2z5rf-142">
          <mxGeometry y="90" width="180" height="30" as="geometry" />
        </mxCell>
        <mxCell id="GJyX6gk9V1ZS1GH2z5rf-150" value="" style="shape=partialRectangle;connectable=0;fillColor=none;top=0;left=0;bottom=0;right=0;editable=1;overflow=hidden;html=1;whiteSpace=wrap;strokeColor=#E07A5F;fontColor=#393C56;fontStyle=1" vertex="1" parent="GJyX6gk9V1ZS1GH2z5rf-149">
          <mxGeometry width="56" height="30" as="geometry">
            <mxRectangle width="56" height="30" as="alternateBounds" />
          </mxGeometry>
        </mxCell>
        <mxCell id="GJyX6gk9V1ZS1GH2z5rf-151" value="Row 3" style="shape=partialRectangle;connectable=0;fillColor=none;top=0;left=0;bottom=0;right=0;align=left;spacingLeft=6;overflow=hidden;html=1;whiteSpace=wrap;strokeColor=#E07A5F;fontColor=#393C56;fontStyle=1" vertex="1" parent="GJyX6gk9V1ZS1GH2z5rf-149">
          <mxGeometry x="56" width="124" height="30" as="geometry">
            <mxRectangle width="124" height="30" as="alternateBounds" />
          </mxGeometry>
        </mxCell>
        <mxCell id="GJyX6gk9V1ZS1GH2z5rf-152" value="" style="shape=tableRow;horizontal=0;startSize=0;swimlaneHead=0;swimlaneBody=0;fillColor=none;collapsible=0;dropTarget=0;points=[[0,0.5],[1,0.5]];portConstraint=eastwest;top=0;left=0;right=0;bottom=0;html=1;strokeColor=#E07A5F;fontColor=#393C56;fontStyle=1" vertex="1" parent="GJyX6gk9V1ZS1GH2z5rf-142">
          <mxGeometry y="120" width="180" height="30" as="geometry" />
        </mxCell>
        <mxCell id="GJyX6gk9V1ZS1GH2z5rf-153" value="" style="shape=partialRectangle;connectable=0;fillColor=none;top=0;left=0;bottom=0;right=0;editable=1;overflow=hidden;html=1;whiteSpace=wrap;strokeColor=#E07A5F;fontColor=#393C56;fontStyle=1" vertex="1" parent="GJyX6gk9V1ZS1GH2z5rf-152">
          <mxGeometry width="56" height="30" as="geometry">
            <mxRectangle width="56" height="30" as="alternateBounds" />
          </mxGeometry>
        </mxCell>
        <mxCell id="GJyX6gk9V1ZS1GH2z5rf-154" value="Row 4" style="shape=partialRectangle;connectable=0;fillColor=none;top=0;left=0;bottom=0;right=0;align=left;spacingLeft=6;overflow=hidden;html=1;whiteSpace=wrap;strokeColor=#E07A5F;fontColor=#393C56;fontStyle=1" vertex="1" parent="GJyX6gk9V1ZS1GH2z5rf-152">
          <mxGeometry x="56" width="124" height="30" as="geometry">
            <mxRectangle width="124" height="30" as="alternateBounds" />
          </mxGeometry>
        </mxCell>
        <mxCell id="GJyX6gk9V1ZS1GH2z5rf-155" value="Don/Donneur" style="shape=table;startSize=30;container=1;collapsible=1;childLayout=tableLayout;fixedRows=1;rowLines=0;fontStyle=1;align=center;resizeLast=1;html=1;whiteSpace=wrap;strokeColor=#E07A5F;fontColor=#393C56;fillColor=#F2CC8F;" vertex="1" parent="1">
          <mxGeometry x="600" y="1910" width="180" height="150" as="geometry" />
        </mxCell>
        <mxCell id="GJyX6gk9V1ZS1GH2z5rf-156" value="" style="shape=tableRow;horizontal=0;startSize=0;swimlaneHead=0;swimlaneBody=0;fillColor=none;collapsible=0;dropTarget=0;points=[[0,0.5],[1,0.5]];portConstraint=eastwest;top=0;left=0;right=0;bottom=0;html=1;strokeColor=#E07A5F;fontColor=#393C56;fontStyle=1" vertex="1" parent="GJyX6gk9V1ZS1GH2z5rf-155">
          <mxGeometry y="30" width="180" height="30" as="geometry" />
        </mxCell>
        <mxCell id="GJyX6gk9V1ZS1GH2z5rf-157" value="PK,FK1" style="shape=partialRectangle;connectable=0;fillColor=none;top=0;left=0;bottom=0;right=0;fontStyle=1;overflow=hidden;html=1;whiteSpace=wrap;strokeColor=#E07A5F;fontColor=#393C56;" vertex="1" parent="GJyX6gk9V1ZS1GH2z5rf-156">
          <mxGeometry width="60" height="30" as="geometry">
            <mxRectangle width="60" height="30" as="alternateBounds" />
          </mxGeometry>
        </mxCell>
        <mxCell id="GJyX6gk9V1ZS1GH2z5rf-158" value="IDDonneur" style="shape=partialRectangle;connectable=0;fillColor=none;top=0;left=0;bottom=0;right=0;align=left;spacingLeft=6;fontStyle=5;overflow=hidden;html=1;whiteSpace=wrap;strokeColor=#E07A5F;fontColor=#393C56;" vertex="1" parent="GJyX6gk9V1ZS1GH2z5rf-156">
          <mxGeometry x="60" width="120" height="30" as="geometry">
            <mxRectangle width="120" height="30" as="alternateBounds" />
          </mxGeometry>
        </mxCell>
        <mxCell id="GJyX6gk9V1ZS1GH2z5rf-159" value="" style="shape=tableRow;horizontal=0;startSize=0;swimlaneHead=0;swimlaneBody=0;fillColor=none;collapsible=0;dropTarget=0;points=[[0,0.5],[1,0.5]];portConstraint=eastwest;top=0;left=0;right=0;bottom=1;html=1;strokeColor=#E07A5F;fontColor=#393C56;fontStyle=1" vertex="1" parent="GJyX6gk9V1ZS1GH2z5rf-155">
          <mxGeometry y="60" width="180" height="30" as="geometry" />
        </mxCell>
        <mxCell id="GJyX6gk9V1ZS1GH2z5rf-160" value="PK,FK2" style="shape=partialRectangle;connectable=0;fillColor=none;top=0;left=0;bottom=0;right=0;fontStyle=1;overflow=hidden;html=1;whiteSpace=wrap;strokeColor=#E07A5F;fontColor=#393C56;" vertex="1" parent="GJyX6gk9V1ZS1GH2z5rf-159">
          <mxGeometry width="60" height="30" as="geometry">
            <mxRectangle width="60" height="30" as="alternateBounds" />
          </mxGeometry>
        </mxCell>
        <mxCell id="GJyX6gk9V1ZS1GH2z5rf-161" value="IDDon" style="shape=partialRectangle;connectable=0;fillColor=none;top=0;left=0;bottom=0;right=0;align=left;spacingLeft=6;fontStyle=5;overflow=hidden;html=1;whiteSpace=wrap;strokeColor=#E07A5F;fontColor=#393C56;" vertex="1" parent="GJyX6gk9V1ZS1GH2z5rf-159">
          <mxGeometry x="60" width="120" height="30" as="geometry">
            <mxRectangle width="120" height="30" as="alternateBounds" />
          </mxGeometry>
        </mxCell>
        <mxCell id="GJyX6gk9V1ZS1GH2z5rf-162" value="" style="shape=tableRow;horizontal=0;startSize=0;swimlaneHead=0;swimlaneBody=0;fillColor=none;collapsible=0;dropTarget=0;points=[[0,0.5],[1,0.5]];portConstraint=eastwest;top=0;left=0;right=0;bottom=0;html=1;strokeColor=#E07A5F;fontColor=#393C56;fontStyle=1" vertex="1" parent="GJyX6gk9V1ZS1GH2z5rf-155">
          <mxGeometry y="90" width="180" height="30" as="geometry" />
        </mxCell>
        <mxCell id="GJyX6gk9V1ZS1GH2z5rf-163" value="" style="shape=partialRectangle;connectable=0;fillColor=none;top=0;left=0;bottom=0;right=0;editable=1;overflow=hidden;html=1;whiteSpace=wrap;strokeColor=#E07A5F;fontColor=#393C56;fontStyle=1" vertex="1" parent="GJyX6gk9V1ZS1GH2z5rf-162">
          <mxGeometry width="60" height="30" as="geometry">
            <mxRectangle width="60" height="30" as="alternateBounds" />
          </mxGeometry>
        </mxCell>
        <mxCell id="GJyX6gk9V1ZS1GH2z5rf-164" value="Row 3" style="shape=partialRectangle;connectable=0;fillColor=none;top=0;left=0;bottom=0;right=0;align=left;spacingLeft=6;overflow=hidden;html=1;whiteSpace=wrap;strokeColor=#E07A5F;fontColor=#393C56;fontStyle=1" vertex="1" parent="GJyX6gk9V1ZS1GH2z5rf-162">
          <mxGeometry x="60" width="120" height="30" as="geometry">
            <mxRectangle width="120" height="30" as="alternateBounds" />
          </mxGeometry>
        </mxCell>
        <mxCell id="GJyX6gk9V1ZS1GH2z5rf-165" value="" style="shape=tableRow;horizontal=0;startSize=0;swimlaneHead=0;swimlaneBody=0;fillColor=none;collapsible=0;dropTarget=0;points=[[0,0.5],[1,0.5]];portConstraint=eastwest;top=0;left=0;right=0;bottom=0;html=1;strokeColor=#E07A5F;fontColor=#393C56;fontStyle=1" vertex="1" parent="GJyX6gk9V1ZS1GH2z5rf-155">
          <mxGeometry y="120" width="180" height="30" as="geometry" />
        </mxCell>
        <mxCell id="GJyX6gk9V1ZS1GH2z5rf-166" value="" style="shape=partialRectangle;connectable=0;fillColor=none;top=0;left=0;bottom=0;right=0;editable=1;overflow=hidden;html=1;whiteSpace=wrap;strokeColor=#E07A5F;fontColor=#393C56;fontStyle=1" vertex="1" parent="GJyX6gk9V1ZS1GH2z5rf-165">
          <mxGeometry width="60" height="30" as="geometry">
            <mxRectangle width="60" height="30" as="alternateBounds" />
          </mxGeometry>
        </mxCell>
        <mxCell id="GJyX6gk9V1ZS1GH2z5rf-167" value="Row 4" style="shape=partialRectangle;connectable=0;fillColor=none;top=0;left=0;bottom=0;right=0;align=left;spacingLeft=6;overflow=hidden;html=1;whiteSpace=wrap;strokeColor=#E07A5F;fontColor=#393C56;fontStyle=1" vertex="1" parent="GJyX6gk9V1ZS1GH2z5rf-165">
          <mxGeometry x="60" width="120" height="30" as="geometry">
            <mxRectangle width="120" height="30" as="alternateBounds" />
          </mxGeometry>
        </mxCell>
        <mxCell id="GJyX6gk9V1ZS1GH2z5rf-168" value="" style="verticalLabelPosition=bottom;verticalAlign=top;html=1;shape=mxgraph.basic.rect;fillColor2=none;strokeWidth=1;size=20;indent=5;strokeColor=#E07A5F;fontColor=#393C56;fillColor=#F2CC8F;" vertex="1" parent="1">
          <mxGeometry x="350" y="2130" width="120" height="60" as="geometry" />
        </mxCell>
        <mxCell id="GJyX6gk9V1ZS1GH2z5rf-169" value="Programmes" style="shape=table;startSize=30;container=1;collapsible=1;childLayout=tableLayout;fixedRows=1;rowLines=0;fontStyle=1;align=center;resizeLast=1;html=1;whiteSpace=wrap;strokeColor=#E07A5F;fontColor=#393C56;fillColor=#F2CC8F;" vertex="1" parent="1">
          <mxGeometry x="114" y="2240" width="240" height="250" as="geometry" />
        </mxCell>
        <mxCell id="GJyX6gk9V1ZS1GH2z5rf-170" value="" style="shape=tableRow;horizontal=0;startSize=0;swimlaneHead=0;swimlaneBody=0;fillColor=none;collapsible=0;dropTarget=0;points=[[0,0.5],[1,0.5]];portConstraint=eastwest;top=0;left=0;right=0;bottom=0;html=1;strokeColor=#E07A5F;fontColor=#393C56;" vertex="1" parent="GJyX6gk9V1ZS1GH2z5rf-169">
          <mxGeometry y="30" width="240" height="30" as="geometry" />
        </mxCell>
        <mxCell id="GJyX6gk9V1ZS1GH2z5rf-171" value="&lt;br&gt;ID" style="shape=partialRectangle;connectable=0;fillColor=none;top=0;left=0;bottom=0;right=0;fontStyle=1;overflow=hidden;html=1;whiteSpace=wrap;strokeColor=#E07A5F;fontColor=#393C56;" vertex="1" parent="GJyX6gk9V1ZS1GH2z5rf-170">
          <mxGeometry width="86" height="30" as="geometry">
            <mxRectangle width="86" height="30" as="alternateBounds" />
          </mxGeometry>
        </mxCell>
        <mxCell id="GJyX6gk9V1ZS1GH2z5rf-172" value="&lt;br&gt;Programmes semaine" style="shape=partialRectangle;connectable=0;fillColor=none;top=0;left=0;bottom=0;right=0;align=left;spacingLeft=6;fontStyle=5;overflow=hidden;html=1;whiteSpace=wrap;strokeColor=#E07A5F;fontColor=#393C56;" vertex="1" parent="GJyX6gk9V1ZS1GH2z5rf-170">
          <mxGeometry x="86" width="154" height="30" as="geometry">
            <mxRectangle width="154" height="30" as="alternateBounds" />
          </mxGeometry>
        </mxCell>
        <mxCell id="GJyX6gk9V1ZS1GH2z5rf-173" value="" style="shape=tableRow;horizontal=0;startSize=0;swimlaneHead=0;swimlaneBody=0;fillColor=none;collapsible=0;dropTarget=0;points=[[0,0.5],[1,0.5]];portConstraint=eastwest;top=0;left=0;right=0;bottom=1;html=1;strokeColor=#E07A5F;fontColor=#393C56;" vertex="1" parent="GJyX6gk9V1ZS1GH2z5rf-169">
          <mxGeometry y="60" width="240" height="20" as="geometry" />
        </mxCell>
        <mxCell id="GJyX6gk9V1ZS1GH2z5rf-174" value="" style="shape=partialRectangle;connectable=0;fillColor=none;top=0;left=0;bottom=0;right=0;fontStyle=1;overflow=hidden;html=1;whiteSpace=wrap;strokeColor=#E07A5F;fontColor=#393C56;" vertex="1" parent="GJyX6gk9V1ZS1GH2z5rf-173">
          <mxGeometry width="86" height="20" as="geometry">
            <mxRectangle width="86" height="20" as="alternateBounds" />
          </mxGeometry>
        </mxCell>
        <mxCell id="GJyX6gk9V1ZS1GH2z5rf-175" value="" style="shape=partialRectangle;connectable=0;fillColor=none;top=0;left=0;bottom=0;right=0;align=left;spacingLeft=6;fontStyle=5;overflow=hidden;html=1;whiteSpace=wrap;strokeColor=#E07A5F;fontColor=#393C56;" vertex="1" parent="GJyX6gk9V1ZS1GH2z5rf-173">
          <mxGeometry x="86" width="154" height="20" as="geometry">
            <mxRectangle width="154" height="20" as="alternateBounds" />
          </mxGeometry>
        </mxCell>
        <mxCell id="GJyX6gk9V1ZS1GH2z5rf-176" value="" style="shape=tableRow;horizontal=0;startSize=0;swimlaneHead=0;swimlaneBody=0;fillColor=none;collapsible=0;dropTarget=0;points=[[0,0.5],[1,0.5]];portConstraint=eastwest;top=0;left=0;right=0;bottom=0;html=1;strokeColor=#E07A5F;fontColor=#393C56;fontStyle=1" vertex="1" parent="GJyX6gk9V1ZS1GH2z5rf-169">
          <mxGeometry y="80" width="240" height="170" as="geometry" />
        </mxCell>
        <mxCell id="GJyX6gk9V1ZS1GH2z5rf-177" value="1&lt;br&gt;&lt;br&gt;2&lt;br&gt;&lt;br&gt;3&lt;br&gt;&lt;br&gt;4&lt;br&gt;&lt;br&gt;5" style="shape=partialRectangle;connectable=0;fillColor=none;top=0;left=0;bottom=0;right=0;editable=1;overflow=hidden;html=1;whiteSpace=wrap;strokeColor=#E07A5F;fontColor=#393C56;fontStyle=1" vertex="1" parent="GJyX6gk9V1ZS1GH2z5rf-176">
          <mxGeometry width="86" height="170" as="geometry">
            <mxRectangle width="86" height="170" as="alternateBounds" />
          </mxGeometry>
        </mxCell>
        <mxCell id="GJyX6gk9V1ZS1GH2z5rf-178" value="Programmes 1&lt;br&gt;&lt;br&gt;Programmes 2&lt;br&gt;&lt;br&gt;Programmes 3&lt;br&gt;&lt;br&gt;Programmes 4&lt;br&gt;&lt;br&gt;Programmes 5&lt;br&gt;" style="shape=partialRectangle;connectable=0;fillColor=none;top=0;left=0;bottom=0;right=0;align=left;spacingLeft=6;overflow=hidden;html=1;whiteSpace=wrap;strokeColor=#E07A5F;fontColor=#393C56;fontStyle=1" vertex="1" parent="GJyX6gk9V1ZS1GH2z5rf-176">
          <mxGeometry x="86" width="154" height="170" as="geometry">
            <mxRectangle width="154" height="170" as="alternateBounds" />
          </mxGeometry>
        </mxCell>
        <mxCell id="GJyX6gk9V1ZS1GH2z5rf-179" value="Etablissement" style="shape=table;startSize=30;container=1;collapsible=1;childLayout=tableLayout;fixedRows=1;rowLines=0;fontStyle=1;align=center;resizeLast=1;html=1;whiteSpace=wrap;strokeColor=#E07A5F;fontColor=#393C56;fillColor=#F2CC8F;" vertex="1" parent="1">
          <mxGeometry x="500" y="2240" width="240" height="230" as="geometry" />
        </mxCell>
        <mxCell id="GJyX6gk9V1ZS1GH2z5rf-180" value="" style="shape=tableRow;horizontal=0;startSize=0;swimlaneHead=0;swimlaneBody=0;fillColor=none;collapsible=0;dropTarget=0;points=[[0,0.5],[1,0.5]];portConstraint=eastwest;top=0;left=0;right=0;bottom=0;html=1;strokeColor=#E07A5F;fontColor=#393C56;fontStyle=1" vertex="1" parent="GJyX6gk9V1ZS1GH2z5rf-179">
          <mxGeometry y="30" width="240" height="30" as="geometry" />
        </mxCell>
        <mxCell id="GJyX6gk9V1ZS1GH2z5rf-181" value="&lt;br&gt;IDEtablissement" style="shape=partialRectangle;connectable=0;fillColor=none;top=0;left=0;bottom=0;right=0;fontStyle=1;overflow=hidden;html=1;whiteSpace=wrap;strokeColor=#E07A5F;fontColor=#393C56;" vertex="1" parent="GJyX6gk9V1ZS1GH2z5rf-180">
          <mxGeometry width="120" height="30" as="geometry">
            <mxRectangle width="120" height="30" as="alternateBounds" />
          </mxGeometry>
        </mxCell>
        <mxCell id="GJyX6gk9V1ZS1GH2z5rf-182" value="&lt;br&gt;EHPAD" style="shape=partialRectangle;connectable=0;fillColor=none;top=0;left=0;bottom=0;right=0;align=left;spacingLeft=6;fontStyle=5;overflow=hidden;html=1;whiteSpace=wrap;strokeColor=#E07A5F;fontColor=#393C56;" vertex="1" parent="GJyX6gk9V1ZS1GH2z5rf-180">
          <mxGeometry x="120" width="120" height="30" as="geometry">
            <mxRectangle width="120" height="30" as="alternateBounds" />
          </mxGeometry>
        </mxCell>
        <mxCell id="GJyX6gk9V1ZS1GH2z5rf-183" value="" style="shape=tableRow;horizontal=0;startSize=0;swimlaneHead=0;swimlaneBody=0;fillColor=none;collapsible=0;dropTarget=0;points=[[0,0.5],[1,0.5]];portConstraint=eastwest;top=0;left=0;right=0;bottom=1;html=1;strokeColor=#E07A5F;fontColor=#393C56;fontStyle=1" vertex="1" parent="GJyX6gk9V1ZS1GH2z5rf-179">
          <mxGeometry y="60" width="240" height="20" as="geometry" />
        </mxCell>
        <mxCell id="GJyX6gk9V1ZS1GH2z5rf-184" value="" style="shape=partialRectangle;connectable=0;fillColor=none;top=0;left=0;bottom=0;right=0;fontStyle=1;overflow=hidden;html=1;whiteSpace=wrap;strokeColor=#E07A5F;fontColor=#393C56;" vertex="1" parent="GJyX6gk9V1ZS1GH2z5rf-183">
          <mxGeometry width="120" height="20" as="geometry">
            <mxRectangle width="120" height="20" as="alternateBounds" />
          </mxGeometry>
        </mxCell>
        <mxCell id="GJyX6gk9V1ZS1GH2z5rf-185" value="" style="shape=partialRectangle;connectable=0;fillColor=none;top=0;left=0;bottom=0;right=0;align=left;spacingLeft=6;fontStyle=5;overflow=hidden;html=1;whiteSpace=wrap;strokeColor=#E07A5F;fontColor=#393C56;" vertex="1" parent="GJyX6gk9V1ZS1GH2z5rf-183">
          <mxGeometry x="120" width="120" height="20" as="geometry">
            <mxRectangle width="120" height="20" as="alternateBounds" />
          </mxGeometry>
        </mxCell>
        <mxCell id="GJyX6gk9V1ZS1GH2z5rf-186" value="" style="shape=tableRow;horizontal=0;startSize=0;swimlaneHead=0;swimlaneBody=0;fillColor=none;collapsible=0;dropTarget=0;points=[[0,0.5],[1,0.5]];portConstraint=eastwest;top=0;left=0;right=0;bottom=0;html=1;strokeColor=#E07A5F;fontColor=#393C56;fontStyle=1" vertex="1" parent="GJyX6gk9V1ZS1GH2z5rf-179">
          <mxGeometry y="80" width="240" height="150" as="geometry" />
        </mxCell>
        <mxCell id="GJyX6gk9V1ZS1GH2z5rf-187" value="1&lt;br&gt;&lt;br&gt;2&lt;br&gt;&lt;br&gt;3&lt;br&gt;&lt;br&gt;4&lt;br&gt;&lt;br&gt;5" style="shape=partialRectangle;connectable=0;fillColor=none;top=0;left=0;bottom=0;right=0;editable=1;overflow=hidden;html=1;whiteSpace=wrap;strokeColor=#E07A5F;fontColor=#393C56;fontStyle=1" vertex="1" parent="GJyX6gk9V1ZS1GH2z5rf-186">
          <mxGeometry width="120" height="150" as="geometry">
            <mxRectangle width="120" height="150" as="alternateBounds" />
          </mxGeometry>
        </mxCell>
        <mxCell id="GJyX6gk9V1ZS1GH2z5rf-188" value="EHPAD 1&lt;br&gt;&lt;br&gt;EHPAD 2&lt;br&gt;&lt;br&gt;EHPAD 3&lt;br&gt;&lt;br&gt;EHPAD 4&lt;br&gt;&lt;br&gt;EHPAD 5" style="shape=partialRectangle;connectable=0;fillColor=none;top=0;left=0;bottom=0;right=0;align=left;spacingLeft=6;overflow=hidden;html=1;whiteSpace=wrap;strokeColor=#E07A5F;fontColor=#393C56;fontStyle=1" vertex="1" parent="GJyX6gk9V1ZS1GH2z5rf-186">
          <mxGeometry x="120" width="120" height="150" as="geometry">
            <mxRectangle width="120" height="150" as="alternateBounds" />
          </mxGeometry>
        </mxCell>
        <mxCell id="GJyX6gk9V1ZS1GH2z5rf-189" value="Etablissement" style="shape=table;startSize=30;container=1;collapsible=1;childLayout=tableLayout;fixedRows=1;rowLines=0;fontStyle=1;align=center;resizeLast=1;html=1;whiteSpace=wrap;strokeColor=#E07A5F;fontColor=#393C56;fillColor=#F2CC8F;" vertex="1" parent="1">
          <mxGeometry x="500" y="2600" width="240" height="240" as="geometry" />
        </mxCell>
        <mxCell id="GJyX6gk9V1ZS1GH2z5rf-190" value="" style="shape=tableRow;horizontal=0;startSize=0;swimlaneHead=0;swimlaneBody=0;fillColor=none;collapsible=0;dropTarget=0;points=[[0,0.5],[1,0.5]];portConstraint=eastwest;top=0;left=0;right=0;bottom=0;html=1;strokeColor=#E07A5F;fontColor=#393C56;fontStyle=1" vertex="1" parent="GJyX6gk9V1ZS1GH2z5rf-189">
          <mxGeometry y="30" width="240" height="30" as="geometry" />
        </mxCell>
        <mxCell id="GJyX6gk9V1ZS1GH2z5rf-191" value="&lt;br&gt;IDEtablissement" style="shape=partialRectangle;connectable=0;fillColor=none;top=0;left=0;bottom=0;right=0;fontStyle=1;overflow=hidden;html=1;whiteSpace=wrap;strokeColor=#E07A5F;fontColor=#393C56;" vertex="1" parent="GJyX6gk9V1ZS1GH2z5rf-190">
          <mxGeometry width="120" height="30" as="geometry">
            <mxRectangle width="120" height="30" as="alternateBounds" />
          </mxGeometry>
        </mxCell>
        <mxCell id="GJyX6gk9V1ZS1GH2z5rf-192" value="&lt;br&gt;Orphelinat" style="shape=partialRectangle;connectable=0;fillColor=none;top=0;left=0;bottom=0;right=0;align=left;spacingLeft=6;fontStyle=5;overflow=hidden;html=1;whiteSpace=wrap;strokeColor=#E07A5F;fontColor=#393C56;" vertex="1" parent="GJyX6gk9V1ZS1GH2z5rf-190">
          <mxGeometry x="120" width="120" height="30" as="geometry">
            <mxRectangle width="120" height="30" as="alternateBounds" />
          </mxGeometry>
        </mxCell>
        <mxCell id="GJyX6gk9V1ZS1GH2z5rf-193" value="" style="shape=tableRow;horizontal=0;startSize=0;swimlaneHead=0;swimlaneBody=0;fillColor=none;collapsible=0;dropTarget=0;points=[[0,0.5],[1,0.5]];portConstraint=eastwest;top=0;left=0;right=0;bottom=1;html=1;strokeColor=#E07A5F;fontColor=#393C56;fontStyle=1" vertex="1" parent="GJyX6gk9V1ZS1GH2z5rf-189">
          <mxGeometry y="60" width="240" height="20" as="geometry" />
        </mxCell>
        <mxCell id="GJyX6gk9V1ZS1GH2z5rf-194" value="" style="shape=partialRectangle;connectable=0;fillColor=none;top=0;left=0;bottom=0;right=0;fontStyle=1;overflow=hidden;html=1;whiteSpace=wrap;strokeColor=#E07A5F;fontColor=#393C56;" vertex="1" parent="GJyX6gk9V1ZS1GH2z5rf-193">
          <mxGeometry width="120" height="20" as="geometry">
            <mxRectangle width="120" height="20" as="alternateBounds" />
          </mxGeometry>
        </mxCell>
        <mxCell id="GJyX6gk9V1ZS1GH2z5rf-195" value="" style="shape=partialRectangle;connectable=0;fillColor=none;top=0;left=0;bottom=0;right=0;align=left;spacingLeft=6;fontStyle=5;overflow=hidden;html=1;whiteSpace=wrap;strokeColor=#E07A5F;fontColor=#393C56;" vertex="1" parent="GJyX6gk9V1ZS1GH2z5rf-193">
          <mxGeometry x="120" width="120" height="20" as="geometry">
            <mxRectangle width="120" height="20" as="alternateBounds" />
          </mxGeometry>
        </mxCell>
        <mxCell id="GJyX6gk9V1ZS1GH2z5rf-196" value="" style="shape=tableRow;horizontal=0;startSize=0;swimlaneHead=0;swimlaneBody=0;fillColor=none;collapsible=0;dropTarget=0;points=[[0,0.5],[1,0.5]];portConstraint=eastwest;top=0;left=0;right=0;bottom=0;html=1;strokeColor=#E07A5F;fontColor=#393C56;fontStyle=1" vertex="1" parent="GJyX6gk9V1ZS1GH2z5rf-189">
          <mxGeometry y="80" width="240" height="160" as="geometry" />
        </mxCell>
        <mxCell id="GJyX6gk9V1ZS1GH2z5rf-197" value="1&lt;br&gt;&lt;br&gt;2&lt;br&gt;&lt;br&gt;3&lt;br&gt;&lt;br&gt;4&lt;br&gt;&lt;br&gt;5" style="shape=partialRectangle;connectable=0;fillColor=none;top=0;left=0;bottom=0;right=0;editable=1;overflow=hidden;html=1;whiteSpace=wrap;strokeColor=#E07A5F;fontColor=#393C56;fontStyle=1" vertex="1" parent="GJyX6gk9V1ZS1GH2z5rf-196">
          <mxGeometry width="120" height="160" as="geometry">
            <mxRectangle width="120" height="160" as="alternateBounds" />
          </mxGeometry>
        </mxCell>
        <mxCell id="GJyX6gk9V1ZS1GH2z5rf-198" value="Orphelinat 1&lt;br&gt;&lt;br&gt;Orphelinat 2&lt;br&gt;&lt;br&gt;Orphelinat 3&lt;br&gt;&lt;br&gt;Orphelinat 4&lt;br&gt;&lt;br&gt;Orphelinat 5" style="shape=partialRectangle;connectable=0;fillColor=none;top=0;left=0;bottom=0;right=0;align=left;spacingLeft=6;overflow=hidden;html=1;whiteSpace=wrap;strokeColor=#E07A5F;fontColor=#393C56;fontStyle=1" vertex="1" parent="GJyX6gk9V1ZS1GH2z5rf-196">
          <mxGeometry x="120" width="120" height="160" as="geometry">
            <mxRectangle width="120" height="160" as="alternateBounds" />
          </mxGeometry>
        </mxCell>
        <mxCell id="GJyX6gk9V1ZS1GH2z5rf-199" value="Activiter" style="shape=table;startSize=30;container=1;collapsible=1;childLayout=tableLayout;fixedRows=1;rowLines=0;fontStyle=1;align=center;resizeLast=1;html=1;whiteSpace=wrap;strokeColor=#E07A5F;fontColor=#393C56;fillColor=#F2CC8F;" vertex="1" parent="1">
          <mxGeometry x="110" y="2600" width="240" height="250" as="geometry" />
        </mxCell>
        <mxCell id="GJyX6gk9V1ZS1GH2z5rf-200" value="" style="shape=tableRow;horizontal=0;startSize=0;swimlaneHead=0;swimlaneBody=0;fillColor=none;collapsible=0;dropTarget=0;points=[[0,0.5],[1,0.5]];portConstraint=eastwest;top=0;left=0;right=0;bottom=0;html=1;strokeColor=#E07A5F;fontColor=#393C56;" vertex="1" parent="GJyX6gk9V1ZS1GH2z5rf-199">
          <mxGeometry y="30" width="240" height="30" as="geometry" />
        </mxCell>
        <mxCell id="GJyX6gk9V1ZS1GH2z5rf-201" value="&lt;br&gt;ID" style="shape=partialRectangle;connectable=0;fillColor=none;top=0;left=0;bottom=0;right=0;fontStyle=1;overflow=hidden;html=1;whiteSpace=wrap;strokeColor=#E07A5F;fontColor=#393C56;" vertex="1" parent="GJyX6gk9V1ZS1GH2z5rf-200">
          <mxGeometry width="86" height="30" as="geometry">
            <mxRectangle width="86" height="30" as="alternateBounds" />
          </mxGeometry>
        </mxCell>
        <mxCell id="GJyX6gk9V1ZS1GH2z5rf-202" value="&lt;br&gt;Activiter" style="shape=partialRectangle;connectable=0;fillColor=none;top=0;left=0;bottom=0;right=0;align=left;spacingLeft=6;fontStyle=5;overflow=hidden;html=1;whiteSpace=wrap;strokeColor=#E07A5F;fontColor=#393C56;" vertex="1" parent="GJyX6gk9V1ZS1GH2z5rf-200">
          <mxGeometry x="86" width="154" height="30" as="geometry">
            <mxRectangle width="154" height="30" as="alternateBounds" />
          </mxGeometry>
        </mxCell>
        <mxCell id="GJyX6gk9V1ZS1GH2z5rf-203" value="" style="shape=tableRow;horizontal=0;startSize=0;swimlaneHead=0;swimlaneBody=0;fillColor=none;collapsible=0;dropTarget=0;points=[[0,0.5],[1,0.5]];portConstraint=eastwest;top=0;left=0;right=0;bottom=1;html=1;strokeColor=#E07A5F;fontColor=#393C56;" vertex="1" parent="GJyX6gk9V1ZS1GH2z5rf-199">
          <mxGeometry y="60" width="240" height="20" as="geometry" />
        </mxCell>
        <mxCell id="GJyX6gk9V1ZS1GH2z5rf-204" value="" style="shape=partialRectangle;connectable=0;fillColor=none;top=0;left=0;bottom=0;right=0;fontStyle=1;overflow=hidden;html=1;whiteSpace=wrap;strokeColor=#E07A5F;fontColor=#393C56;" vertex="1" parent="GJyX6gk9V1ZS1GH2z5rf-203">
          <mxGeometry width="86" height="20" as="geometry">
            <mxRectangle width="86" height="20" as="alternateBounds" />
          </mxGeometry>
        </mxCell>
        <mxCell id="GJyX6gk9V1ZS1GH2z5rf-205" value="" style="shape=partialRectangle;connectable=0;fillColor=none;top=0;left=0;bottom=0;right=0;align=left;spacingLeft=6;fontStyle=5;overflow=hidden;html=1;whiteSpace=wrap;strokeColor=#E07A5F;fontColor=#393C56;" vertex="1" parent="GJyX6gk9V1ZS1GH2z5rf-203">
          <mxGeometry x="86" width="154" height="20" as="geometry">
            <mxRectangle width="154" height="20" as="alternateBounds" />
          </mxGeometry>
        </mxCell>
        <mxCell id="GJyX6gk9V1ZS1GH2z5rf-206" value="" style="shape=tableRow;horizontal=0;startSize=0;swimlaneHead=0;swimlaneBody=0;fillColor=none;collapsible=0;dropTarget=0;points=[[0,0.5],[1,0.5]];portConstraint=eastwest;top=0;left=0;right=0;bottom=0;html=1;strokeColor=#E07A5F;fontColor=#393C56;fontStyle=1" vertex="1" parent="GJyX6gk9V1ZS1GH2z5rf-199">
          <mxGeometry y="80" width="240" height="170" as="geometry" />
        </mxCell>
        <mxCell id="GJyX6gk9V1ZS1GH2z5rf-207" value="1&lt;br&gt;&lt;br&gt;2&lt;br&gt;&lt;br&gt;3&lt;br&gt;&lt;br&gt;4&lt;br&gt;&lt;br&gt;5&lt;br&gt;&lt;br&gt;6" style="shape=partialRectangle;connectable=0;fillColor=none;top=0;left=0;bottom=0;right=0;editable=1;overflow=hidden;html=1;whiteSpace=wrap;strokeColor=#E07A5F;fontColor=#393C56;fontStyle=1" vertex="1" parent="GJyX6gk9V1ZS1GH2z5rf-206">
          <mxGeometry width="86" height="170" as="geometry">
            <mxRectangle width="86" height="170" as="alternateBounds" />
          </mxGeometry>
        </mxCell>
        <mxCell id="GJyX6gk9V1ZS1GH2z5rf-208" value="Piscine&lt;br&gt;&lt;br&gt;Informatique&lt;br&gt;&lt;br&gt;Cuisine&lt;br&gt;&lt;br&gt;Atelier Artistique&lt;br&gt;&lt;br&gt;Histoire" style="shape=partialRectangle;connectable=0;fillColor=none;top=0;left=0;bottom=0;right=0;align=left;spacingLeft=6;overflow=hidden;html=1;whiteSpace=wrap;strokeColor=#E07A5F;fontColor=#393C56;fontStyle=1" vertex="1" parent="GJyX6gk9V1ZS1GH2z5rf-206">
          <mxGeometry x="86" width="154" height="170" as="geometry">
            <mxRectangle width="154" height="170" as="alternateBounds" />
          </mxGeometry>
        </mxCell>
        <mxCell id="GJyX6gk9V1ZS1GH2z5rf-209" value="" style="verticalLabelPosition=bottom;verticalAlign=top;html=1;shape=mxgraph.basic.rect;fillColor2=none;strokeWidth=1;size=20;indent=5;strokeColor=#E07A5F;fontColor=#393C56;fillColor=#F2CC8F;" vertex="1" parent="1">
          <mxGeometry x="334" y="3310" width="120" height="60" as="geometry" />
        </mxCell>
        <mxCell id="GJyX6gk9V1ZS1GH2z5rf-210" value="Etablissement/Programmes" style="shape=table;startSize=30;container=1;collapsible=1;childLayout=tableLayout;fixedRows=1;rowLines=0;fontStyle=1;align=center;resizeLast=1;html=1;whiteSpace=wrap;strokeColor=#E07A5F;fontColor=#393C56;fillColor=#F2CC8F;" vertex="1" parent="1">
          <mxGeometry x="94" y="3470" width="280" height="240" as="geometry" />
        </mxCell>
        <mxCell id="GJyX6gk9V1ZS1GH2z5rf-211" value="" style="shape=tableRow;horizontal=0;startSize=0;swimlaneHead=0;swimlaneBody=0;fillColor=none;collapsible=0;dropTarget=0;points=[[0,0.5],[1,0.5]];portConstraint=eastwest;top=0;left=0;right=0;bottom=0;html=1;strokeColor=#E07A5F;fontColor=#393C56;" vertex="1" parent="GJyX6gk9V1ZS1GH2z5rf-210">
          <mxGeometry y="30" width="280" height="40" as="geometry" />
        </mxCell>
        <mxCell id="GJyX6gk9V1ZS1GH2z5rf-212" value="&lt;br&gt;IDEtablissement" style="shape=partialRectangle;connectable=0;fillColor=none;top=0;left=0;bottom=0;right=0;fontStyle=1;overflow=hidden;html=1;whiteSpace=wrap;strokeColor=#E07A5F;fontColor=#393C56;" vertex="1" parent="GJyX6gk9V1ZS1GH2z5rf-211">
          <mxGeometry width="140" height="40" as="geometry">
            <mxRectangle width="140" height="40" as="alternateBounds" />
          </mxGeometry>
        </mxCell>
        <mxCell id="GJyX6gk9V1ZS1GH2z5rf-213" value="&lt;br&gt;IDProgrammes" style="shape=partialRectangle;connectable=0;fillColor=none;top=0;left=0;bottom=0;right=0;align=left;spacingLeft=6;fontStyle=5;overflow=hidden;html=1;whiteSpace=wrap;strokeColor=#E07A5F;fontColor=#393C56;" vertex="1" parent="GJyX6gk9V1ZS1GH2z5rf-211">
          <mxGeometry x="140" width="140" height="40" as="geometry">
            <mxRectangle width="140" height="40" as="alternateBounds" />
          </mxGeometry>
        </mxCell>
        <mxCell id="GJyX6gk9V1ZS1GH2z5rf-214" value="" style="shape=tableRow;horizontal=0;startSize=0;swimlaneHead=0;swimlaneBody=0;fillColor=none;collapsible=0;dropTarget=0;points=[[0,0.5],[1,0.5]];portConstraint=eastwest;top=0;left=0;right=0;bottom=1;html=1;strokeColor=#E07A5F;fontColor=#393C56;" vertex="1" parent="GJyX6gk9V1ZS1GH2z5rf-210">
          <mxGeometry y="70" width="280" height="20" as="geometry" />
        </mxCell>
        <mxCell id="GJyX6gk9V1ZS1GH2z5rf-215" value="" style="shape=partialRectangle;connectable=0;fillColor=none;top=0;left=0;bottom=0;right=0;fontStyle=1;overflow=hidden;html=1;whiteSpace=wrap;strokeColor=#E07A5F;fontColor=#393C56;" vertex="1" parent="GJyX6gk9V1ZS1GH2z5rf-214">
          <mxGeometry width="140" height="20" as="geometry">
            <mxRectangle width="140" height="20" as="alternateBounds" />
          </mxGeometry>
        </mxCell>
        <mxCell id="GJyX6gk9V1ZS1GH2z5rf-216" value="" style="shape=partialRectangle;connectable=0;fillColor=none;top=0;left=0;bottom=0;right=0;align=left;spacingLeft=6;fontStyle=5;overflow=hidden;html=1;whiteSpace=wrap;strokeColor=#E07A5F;fontColor=#393C56;" vertex="1" parent="GJyX6gk9V1ZS1GH2z5rf-214">
          <mxGeometry x="140" width="140" height="20" as="geometry">
            <mxRectangle width="140" height="20" as="alternateBounds" />
          </mxGeometry>
        </mxCell>
        <mxCell id="GJyX6gk9V1ZS1GH2z5rf-217" value="" style="shape=tableRow;horizontal=0;startSize=0;swimlaneHead=0;swimlaneBody=0;fillColor=none;collapsible=0;dropTarget=0;points=[[0,0.5],[1,0.5]];portConstraint=eastwest;top=0;left=0;right=0;bottom=0;html=1;strokeColor=#E07A5F;fontColor=#393C56;" vertex="1" parent="GJyX6gk9V1ZS1GH2z5rf-210">
          <mxGeometry y="90" width="280" height="150" as="geometry" />
        </mxCell>
        <mxCell id="GJyX6gk9V1ZS1GH2z5rf-218" value="1&lt;br&gt;&lt;br&gt;2&lt;br&gt;&lt;br&gt;3&lt;br&gt;&lt;br&gt;4&lt;br&gt;&lt;br&gt;5" style="shape=partialRectangle;connectable=0;fillColor=none;top=0;left=0;bottom=0;right=0;editable=1;overflow=hidden;html=1;whiteSpace=wrap;strokeColor=#E07A5F;fontColor=#393C56;" vertex="1" parent="GJyX6gk9V1ZS1GH2z5rf-217">
          <mxGeometry width="140" height="150" as="geometry">
            <mxRectangle width="140" height="150" as="alternateBounds" />
          </mxGeometry>
        </mxCell>
        <mxCell id="GJyX6gk9V1ZS1GH2z5rf-219" value="&lt;span style=&quot;white-space: pre;&quot;&gt;&#x9;&lt;/span&gt;&lt;span style=&quot;white-space: pre;&quot;&gt;&#x9;&lt;/span&gt;5&lt;br&gt;&lt;br&gt;&lt;span style=&quot;white-space: pre;&quot;&gt;&#x9;&lt;/span&gt;&lt;span style=&quot;white-space: pre;&quot;&gt;&#x9;&lt;/span&gt;3&lt;br&gt;&lt;br&gt;&lt;span style=&quot;white-space: pre;&quot;&gt;&#x9;&lt;/span&gt;&lt;span style=&quot;white-space: pre;&quot;&gt;&#x9;&lt;/span&gt;2&lt;br&gt;&lt;br&gt;&lt;span style=&quot;white-space: pre;&quot;&gt;&#x9;&lt;/span&gt;&lt;span style=&quot;white-space: pre;&quot;&gt;&#x9;&lt;/span&gt;4&lt;br&gt;&lt;br&gt;&lt;span style=&quot;white-space: pre;&quot;&gt;&#x9;&lt;/span&gt;&lt;span style=&quot;white-space: pre;&quot;&gt;&#x9;&lt;/span&gt;1" style="shape=partialRectangle;connectable=0;fillColor=none;top=0;left=0;bottom=0;right=0;align=left;spacingLeft=6;overflow=hidden;html=1;whiteSpace=wrap;strokeColor=#E07A5F;fontColor=#393C56;" vertex="1" parent="GJyX6gk9V1ZS1GH2z5rf-217">
          <mxGeometry x="140" width="140" height="150" as="geometry">
            <mxRectangle width="140" height="150" as="alternateBounds" />
          </mxGeometry>
        </mxCell>
        <mxCell id="GJyX6gk9V1ZS1GH2z5rf-220" value="Donneur" style="shape=table;startSize=30;container=1;collapsible=1;childLayout=tableLayout;fixedRows=1;rowLines=0;fontStyle=1;align=center;resizeLast=1;html=1;whiteSpace=wrap;strokeColor=#E07A5F;fontColor=#393C56;fillColor=#F2CC8F;" vertex="1" parent="1">
          <mxGeometry x="110" y="2960" width="240" height="250" as="geometry" />
        </mxCell>
        <mxCell id="GJyX6gk9V1ZS1GH2z5rf-221" value="" style="shape=tableRow;horizontal=0;startSize=0;swimlaneHead=0;swimlaneBody=0;fillColor=none;collapsible=0;dropTarget=0;points=[[0,0.5],[1,0.5]];portConstraint=eastwest;top=0;left=0;right=0;bottom=0;html=1;strokeColor=#E07A5F;fontColor=#393C56;" vertex="1" parent="GJyX6gk9V1ZS1GH2z5rf-220">
          <mxGeometry y="30" width="240" height="30" as="geometry" />
        </mxCell>
        <mxCell id="GJyX6gk9V1ZS1GH2z5rf-222" value="&lt;br&gt;ID" style="shape=partialRectangle;connectable=0;fillColor=none;top=0;left=0;bottom=0;right=0;fontStyle=1;overflow=hidden;html=1;whiteSpace=wrap;strokeColor=#E07A5F;fontColor=#393C56;" vertex="1" parent="GJyX6gk9V1ZS1GH2z5rf-221">
          <mxGeometry width="86" height="30" as="geometry">
            <mxRectangle width="86" height="30" as="alternateBounds" />
          </mxGeometry>
        </mxCell>
        <mxCell id="GJyX6gk9V1ZS1GH2z5rf-223" value="&lt;br&gt;Donneur" style="shape=partialRectangle;connectable=0;fillColor=none;top=0;left=0;bottom=0;right=0;align=left;spacingLeft=6;fontStyle=5;overflow=hidden;html=1;whiteSpace=wrap;strokeColor=#E07A5F;fontColor=#393C56;" vertex="1" parent="GJyX6gk9V1ZS1GH2z5rf-221">
          <mxGeometry x="86" width="154" height="30" as="geometry">
            <mxRectangle width="154" height="30" as="alternateBounds" />
          </mxGeometry>
        </mxCell>
        <mxCell id="GJyX6gk9V1ZS1GH2z5rf-224" value="" style="shape=tableRow;horizontal=0;startSize=0;swimlaneHead=0;swimlaneBody=0;fillColor=none;collapsible=0;dropTarget=0;points=[[0,0.5],[1,0.5]];portConstraint=eastwest;top=0;left=0;right=0;bottom=1;html=1;strokeColor=#E07A5F;fontColor=#393C56;" vertex="1" parent="GJyX6gk9V1ZS1GH2z5rf-220">
          <mxGeometry y="60" width="240" height="20" as="geometry" />
        </mxCell>
        <mxCell id="GJyX6gk9V1ZS1GH2z5rf-225" value="" style="shape=partialRectangle;connectable=0;fillColor=none;top=0;left=0;bottom=0;right=0;fontStyle=1;overflow=hidden;html=1;whiteSpace=wrap;strokeColor=#E07A5F;fontColor=#393C56;" vertex="1" parent="GJyX6gk9V1ZS1GH2z5rf-224">
          <mxGeometry width="86" height="20" as="geometry">
            <mxRectangle width="86" height="20" as="alternateBounds" />
          </mxGeometry>
        </mxCell>
        <mxCell id="GJyX6gk9V1ZS1GH2z5rf-226" value="" style="shape=partialRectangle;connectable=0;fillColor=none;top=0;left=0;bottom=0;right=0;align=left;spacingLeft=6;fontStyle=5;overflow=hidden;html=1;whiteSpace=wrap;strokeColor=#E07A5F;fontColor=#393C56;" vertex="1" parent="GJyX6gk9V1ZS1GH2z5rf-224">
          <mxGeometry x="86" width="154" height="20" as="geometry">
            <mxRectangle width="154" height="20" as="alternateBounds" />
          </mxGeometry>
        </mxCell>
        <mxCell id="GJyX6gk9V1ZS1GH2z5rf-227" value="" style="shape=tableRow;horizontal=0;startSize=0;swimlaneHead=0;swimlaneBody=0;fillColor=none;collapsible=0;dropTarget=0;points=[[0,0.5],[1,0.5]];portConstraint=eastwest;top=0;left=0;right=0;bottom=0;html=1;strokeColor=#E07A5F;fontColor=#393C56;fontStyle=1" vertex="1" parent="GJyX6gk9V1ZS1GH2z5rf-220">
          <mxGeometry y="80" width="240" height="170" as="geometry" />
        </mxCell>
        <mxCell id="GJyX6gk9V1ZS1GH2z5rf-228" value="1&lt;br&gt;&lt;br&gt;2&lt;br&gt;&lt;br&gt;3&lt;br&gt;&lt;br&gt;4&lt;br&gt;&lt;br&gt;5&lt;br&gt;&lt;br&gt;6" style="shape=partialRectangle;connectable=0;fillColor=none;top=0;left=0;bottom=0;right=0;editable=1;overflow=hidden;html=1;whiteSpace=wrap;strokeColor=#E07A5F;fontColor=#393C56;fontStyle=1" vertex="1" parent="GJyX6gk9V1ZS1GH2z5rf-227">
          <mxGeometry width="86" height="170" as="geometry">
            <mxRectangle width="86" height="170" as="alternateBounds" />
          </mxGeometry>
        </mxCell>
        <mxCell id="GJyX6gk9V1ZS1GH2z5rf-229" value="Donneur 1&lt;br&gt;&lt;br&gt;Donneur 2&lt;br&gt;&lt;br&gt;Donneur 3&lt;br&gt;&lt;br&gt;Donneur 4&lt;br&gt;&lt;br&gt;Donneur 5&lt;br&gt;&lt;br&gt;Donneur 6" style="shape=partialRectangle;connectable=0;fillColor=none;top=0;left=0;bottom=0;right=0;align=left;spacingLeft=6;overflow=hidden;html=1;whiteSpace=wrap;strokeColor=#E07A5F;fontColor=#393C56;fontStyle=1" vertex="1" parent="GJyX6gk9V1ZS1GH2z5rf-227">
          <mxGeometry x="86" width="154" height="170" as="geometry">
            <mxRectangle width="154" height="170" as="alternateBounds" />
          </mxGeometry>
        </mxCell>
      </root>
    </mxGraphModel>
  </diagram>
</mxfile>
